<svg width="24" height="28" viewBox="0 0 24 28" fill="none" xmlns="http://www.w3.org/2000/svg">
<path d="M2.68015 27.2C0.916742 27.2 0.208708 24.0821 0.0617574 22.8403C-0.096445 21.6346 0.050444 20.409 0.489249 19.2733C0.682109 18.7328 1.01384 18.2514 1.45184 17.8761C1.88984 17.5009 2.41903 17.2448 2.98741 17.133C4.55043 16.8688 5.65923 17.7936 7.0753 18.1107C7.3413 18.1951 7.62489 18.2099 7.89841 18.1537C8.17192 18.0974 8.42603 17.972 8.63594 17.7897C8.84585 17.6074 9.0044 17.3744 9.09613 17.1135C9.18786 16.8525 9.20963 16.5725 9.15933 16.3007C8.57152 14.0284 4.39012 13.9888 2.68015 13.9888C2.68015 11.5315 5.40541 11.2144 7.35584 11.3994C8.51292 11.5099 9.65226 11.7583 10.7491 12.1392C11.417 12.3638 12.1918 12.9319 12.9266 12.879C14.0354 12.7865 14.2625 11.6504 13.7816 10.8181C12.6193 8.86282 9.31963 8.70428 7.35584 8.70428C7.35584 6.06204 9.66697 5.56001 11.8846 5.95635C13.0296 6.17927 14.1455 6.52939 15.211 7.00004C15.8923 7.29068 16.7072 7.84555 17.4553 7.59454C19.3791 7.01325 17.3752 4.97872 16.5202 4.4899C15.9201 4.16244 15.2835 3.90529 14.6232 3.72365C13.9018 3.51227 13.0201 3.59154 13.6747 2.75923C14.6983 1.86617 15.9682 1.29574 17.3218 1.12104C19.8466 0.539749 23.3334 0.434059 23.9479 3.57833C24.1527 5.23838 23.7499 6.9161 22.8124 8.30795C20.323 12.5175 17.2419 16.3562 13.6614 19.7092C11.7646 21.6321 9.70906 23.3953 7.51615 24.9805C6.18024 25.9317 4.41683 27.2 2.68015 27.2Z" fill="black"/>
</svg>
