<svg width="24" height="24" viewBox="0 0 24 24" fill="none" xmlns="http://www.w3.org/2000/svg">
<path d="M23.1091 7.1133H19.4913C20.2739 8.4693 20.5871 10.0457 20.3824 11.5978C20.1776 13.15 19.4664 14.5913 18.359 15.698C17.4123 16.6636 16.1801 17.578 14.82 18.4214C14.7349 18.4732 14.6348 18.4949 14.5359 18.483C14.437 18.4711 14.3449 18.4263 14.2745 18.3558L10.4032 14.4846C10.319 14.4004 10.2188 14.3339 10.1084 14.2892C9.99799 14.2445 9.87974 14.2224 9.76065 14.2243C9.64156 14.2261 9.52407 14.2519 9.41513 14.3001C9.3062 14.3482 9.20806 14.4178 9.12654 14.5046C8.96967 14.6806 8.88683 14.9104 8.89532 15.146C8.90381 15.3816 9.00297 15.6048 9.17209 15.7691L12.4922 19.0892C12.5418 19.1387 12.579 19.1992 12.6007 19.2658C12.6225 19.3324 12.6281 19.4032 12.6173 19.4725C12.6065 19.5417 12.5794 19.6074 12.5384 19.6642C12.4973 19.7209 12.4434 19.7672 12.3811 19.7992C7.96873 22.0904 3.21971 23.6182 2.52858 23.8337C2.19796 23.9878 1.82797 24.0364 1.46879 23.973C1.10961 23.9096 0.77862 23.7372 0.520714 23.4793C0.262808 23.2214 0.0904675 22.8904 0.0270667 22.5313C-0.0363341 22.1721 0.0122734 21.8021 0.166297 21.4715C0.469638 20.5037 3.38861 11.4412 7.37316 6.6544C7.41276 6.60703 7.46179 6.56844 7.51713 6.54107C7.57247 6.51371 7.6329 6.49817 7.69458 6.49545C7.75625 6.49273 7.81782 6.50289 7.87535 6.52529C7.93288 6.54768 7.98512 6.58181 8.02873 6.62551L12.7011 11.299C12.7875 11.3853 12.8908 11.453 13.0045 11.4976C13.1182 11.5423 13.24 11.563 13.3621 11.5585C13.4842 11.554 13.604 11.5244 13.7142 11.4716C13.8243 11.4187 13.9224 11.3437 14.0022 11.2512C14.1483 11.0749 14.2225 10.8501 14.2102 10.6215C14.1978 10.3929 14.0998 10.1773 13.9356 10.0178L9.33988 5.42214C9.29301 5.37548 9.25716 5.31894 9.23492 5.25666C9.21268 5.19438 9.20462 5.12792 9.21133 5.06213C9.21803 4.99634 9.23934 4.93287 9.27369 4.87636C9.30804 4.81984 9.35456 4.77171 9.40988 4.73546C10.5124 4.00771 11.7958 3.60144 13.1162 3.56219C14.4366 3.52294 15.7419 3.85226 16.8856 4.51323V0.89091C16.8854 0.768951 16.9102 0.648239 16.9586 0.536285C17.0069 0.424331 17.0778 0.323529 17.1668 0.240151C17.2558 0.156772 17.3611 0.0926015 17.4759 0.0516304C17.5908 0.0106593 17.7129 -0.00623549 17.8345 0.00199708C18.0636 0.021925 18.2766 0.127928 18.4306 0.298649C18.5847 0.46937 18.6682 0.692121 18.6646 0.922022V4.07877L21.5913 1.15092C21.6739 1.06833 21.772 1.00281 21.8799 0.958117C21.9878 0.913421 22.1034 0.890416 22.2202 0.890416C22.337 0.890416 22.4527 0.913421 22.5606 0.958117C22.6685 1.00281 22.7665 1.06833 22.8491 1.15092C22.9317 1.23351 22.9972 1.33155 23.0419 1.43946C23.0866 1.54737 23.1096 1.66302 23.1096 1.77982C23.1096 1.89662 23.0866 2.01228 23.0419 2.12018C22.9972 2.22809 22.9317 2.32614 22.8491 2.40873L19.9213 5.33547H23.078C23.3079 5.3318 23.5307 5.41539 23.7014 5.56941C23.8721 5.72343 23.9781 5.93643 23.998 6.1655C24.0061 6.28709 23.9891 6.40904 23.9481 6.52378C23.907 6.63852 23.8428 6.7436 23.7595 6.83248C23.6761 6.92136 23.5754 6.99216 23.4635 7.04047C23.3516 7.08878 23.231 7.11357 23.1091 7.1133Z" fill="#34332F"/>
</svg>
