<svg width="24" height="6" viewBox="0 0 24 6" fill="none" xmlns="http://www.w3.org/2000/svg">
<path d="M2.4 0.600006C1.76348 0.600006 1.15303 0.852862 0.702943 1.30295C0.252856 1.75304 0 2.36349 0 3.00001C0 3.63653 0.252856 4.24698 0.702943 4.69706C1.15303 5.14715 1.76348 5.40001 2.4 5.40001C3.03652 5.40001 3.64697 5.14715 4.09706 4.69706C4.54714 4.24698 4.8 3.63653 4.8 3.00001C4.8 2.36349 4.54714 1.75304 4.09706 1.30295C3.64697 0.852862 3.03652 0.600006 2.4 0.600006ZM9.6 3.00001C9.6 2.36349 9.85286 1.75304 10.3029 1.30295C10.753 0.852862 11.3635 0.600006 12 0.600006C12.6365 0.600006 13.247 0.852862 13.6971 1.30295C14.1471 1.75304 14.4 2.36349 14.4 3.00001C14.4 3.63653 14.1471 4.24698 13.6971 4.69706C13.247 5.14715 12.6365 5.40001 12 5.40001C11.3635 5.40001 10.753 5.14715 10.3029 4.69706C9.85286 4.24698 9.6 3.63653 9.6 3.00001ZM19.2 3.00001C19.2 2.36349 19.4529 1.75304 19.9029 1.30295C20.353 0.852862 20.9635 0.600006 21.6 0.600006C22.2365 0.600006 22.847 0.852862 23.2971 1.30295C23.7471 1.75304 24 2.36349 24 3.00001C24 3.63653 23.7471 4.24698 23.2971 4.69706C22.847 5.14715 22.2365 5.40001 21.6 5.40001C20.9635 5.40001 20.353 5.14715 19.9029 4.69706C19.4529 4.24698 19.2 3.63653 19.2 3.00001Z" fill="black"/>
</svg>
