<svg width="141" height="135" viewBox="0 0 141 135" fill="none" xmlns="http://www.w3.org/2000/svg">
<path d="M98.5204 42.5368C97.8481 42.6268 97.1823 42.7296 96.5229 42.8711C94.8551 43.2182 93.2196 43.7197 91.6423 44.3625C87.5827 45.9954 83.898 48.5604 80.8856 51.8519C80.5818 51.5883 80.278 51.3247 79.9677 51.074C77.7698 49.2933 75.3327 47.7954 72.7082 46.619C69.8768 45.3461 66.8967 44.4654 63.8326 43.9961C63.0181 41.8553 61.9903 39.8625 60.775 38.0753C60.1285 37.1046 59.4175 36.1981 58.6611 35.356C65.216 31.2352 73.3417 29.6859 80.7693 31.2159C86.3739 32.3667 91.7651 35.3367 95.9476 39.5732C96.872 40.5053 97.7253 41.5018 98.5204 42.5368Z" fill="#FFF57D"/>
<path d="M91.6422 44.3625C89.8258 45.0954 88.0868 46.0083 86.4514 47.0947C84.4215 48.4319 82.5534 50.0326 80.8856 51.8519C80.5817 51.5883 80.2779 51.3248 79.9676 51.0741C77.7697 49.2933 75.3327 47.7954 72.7081 46.619C69.8767 45.3461 66.8967 44.4654 63.8326 43.9961C63.7227 43.7004 63.5998 43.4047 63.477 43.1154C62.7272 41.3089 61.8221 39.6182 60.7749 38.0753C63.7744 36.2432 67.0841 34.9317 70.5555 34.3981C76.0567 33.556 81.9651 34.7903 86.2833 38.2746C86.9556 38.821 87.5826 39.4125 88.1838 40.0296C89.4767 41.3539 90.6403 42.8132 91.6422 44.3625Z" fill="#FCE263"/>
<path d="M86.4511 47.0947C85.21 47.9111 84.027 48.8304 82.9151 49.8333C82.2105 50.4762 81.5318 51.1447 80.8853 51.8519C80.5815 51.5883 80.2777 51.3247 79.9674 51.074C77.7695 49.2933 75.3325 47.7954 72.7079 46.619C72.4881 46.5225 72.2683 46.4197 72.0421 46.3297C69.4111 45.2111 66.6573 44.4268 63.8323 43.9961C63.7224 43.7004 63.5996 43.4046 63.4768 43.1154C65.4872 42.0096 67.8338 41.3796 70.1092 40.9489C73.6711 40.2803 77.4204 39.9846 80.8595 41.1096C82.0877 41.5082 83.2901 42.1061 84.1304 43.0832C84.5636 43.5975 84.8868 44.1889 85.2035 44.7804C85.6237 45.5518 86.0374 46.3233 86.4511 47.0947Z" fill="#FFDB43"/>
<path d="M82.9153 49.8333C82.2107 50.4762 81.5319 51.1448 80.8855 51.8519C80.5817 51.5883 80.2778 51.3248 79.9675 51.074C77.7696 49.2933 75.3326 47.7954 72.7081 46.619C72.4883 46.5226 72.2685 46.4197 72.0422 46.3297C72.4236 46.3233 72.8115 46.3104 73.1929 46.304C74.4147 46.2847 75.6493 46.304 76.8388 46.5611C79.1207 47.0433 81.1053 48.3611 82.9153 49.8333Z" fill="#FCC322"/>
<path d="M60.9526 40.2064C65.2721 36.3788 71.2587 34.6456 76.97 35.5688C82.6813 36.4932 87.8082 40.0251 90.6848 45.017C90.8568 45.3152 91.1703 45.4824 91.4929 45.4824C91.6499 45.4824 91.809 45.4432 91.9551 45.3602C92.4011 45.1057 92.5556 44.5399 92.2996 44.097C89.1469 38.6256 83.5281 34.7549 77.2693 33.7424C71.0118 32.7292 64.4479 34.6295 59.7147 38.8242C59.3307 39.1643 59.2964 39.7493 59.639 40.1305C59.9804 40.5137 60.5686 40.5471 60.9526 40.2064Z" fill="#EFA30C"/>
<path d="M76.0354 39.3405C71.7818 38.8635 67.152 39.9396 62.2695 42.5349C61.8163 42.776 61.645 43.3365 61.8874 43.7878C62.1299 44.2385 62.6929 44.4076 63.1474 44.1671C67.6912 41.7519 71.9563 40.7484 75.8272 41.1797C80.3652 41.687 84.3498 44.4873 85.7429 48.1471C85.8832 48.5174 86.2368 48.7456 86.6124 48.7456C86.7223 48.7456 86.8334 48.7263 86.942 48.6852C87.423 48.5039 87.6654 47.9697 87.4831 47.492C85.825 43.1321 81.3303 39.9326 76.0354 39.3405Z" fill="#EFA30C"/>
<path d="M84.0444 50.6645C80.6422 46.2056 74.2807 44.2038 68.9211 45.9048C68.4317 46.0597 68.1608 46.5804 68.3173 47.0671C68.4731 47.555 68.9973 47.8218 69.486 47.6675C74.1223 46.1986 79.6209 47.9285 82.5622 51.7831C82.7445 52.0236 83.0231 52.1496 83.3036 52.1496C83.5001 52.1496 83.6979 52.0878 83.866 51.9612C84.2752 51.6526 84.3547 51.0715 84.0444 50.6645Z" fill="#EFA30C"/>
<path d="M36.9018 66.6571C36.417 66.6121 35.9322 66.5671 35.4538 66.5221C34.872 66.4642 34.2902 66.4064 33.7149 66.3485C33.327 61.1092 32.8875 55.7348 32.3703 49.9297C31.0257 35.0603 29.3191 19.5994 27.3022 3.95203C28.9183 3.4956 30.5797 3.26416 32.241 3.25131C33.2559 3.23202 34.2644 3.30274 35.2663 3.45702C35.512 12.785 35.7512 22.1065 35.9904 31.4345V31.5117C36.152 37.4774 36.3006 43.4368 36.4558 49.4026L36.5786 54.3076C36.6885 58.422 36.7919 62.5363 36.9018 66.6571Z" fill="#F76D4D"/>
<path d="M36.902 66.6571C36.4172 66.6121 35.9324 66.5671 35.454 66.5221L32.2412 3.25131C33.2561 3.23202 34.2646 3.30274 35.2665 3.45702C35.5122 12.785 35.7514 22.1065 35.9905 31.4345V31.5117C36.1521 37.4774 36.3008 43.4368 36.456 49.4026L36.5788 54.3076C36.6887 58.422 36.7921 62.5363 36.902 66.6571Z" fill="#E24134"/>
<path d="M60.1605 43.6297C58.5057 43.5525 56.8443 43.604 55.2088 43.7775C54.7175 43.829 54.2262 43.8933 53.735 43.964C50.2119 44.504 46.7599 45.7061 43.741 47.4483C43.7152 47.4612 43.6893 47.474 43.6699 47.4869C42.2284 48.3226 40.9161 49.2676 39.7396 50.3026L39.7137 49.319C39.6103 45.1854 39.5004 41.0518 39.3905 36.9182L39.2742 32.5596C43.3209 31.1581 48.2338 31.6981 52.093 34.0381C53.1338 34.6746 54.1228 35.4203 55.0278 36.2689C57.1158 38.2168 58.8612 40.7304 60.1605 43.6297Z" fill="#FFF57D"/>
<path d="M55.2089 43.7775C54.7176 43.8289 54.2263 43.8932 53.7351 43.9639C51.479 44.3111 49.2488 44.9282 47.1479 45.7897C45.9649 46.2654 44.8272 46.8247 43.7411 47.4483C43.7153 47.4611 43.6894 47.474 43.67 47.4868C42.2285 48.3226 40.9162 49.2676 39.7397 50.3026L39.7138 49.319C39.6621 47.2811 39.6104 45.2368 39.5522 43.1989C39.5005 41.1032 39.4488 39.0139 39.3906 36.9181C41.9117 36.3074 44.575 37.111 47.0638 37.9339C48.6217 38.4482 50.1926 38.9882 51.563 39.8818C53.0692 40.8653 54.2587 42.2411 55.2089 43.7775Z" fill="#FCE263"/>
<path d="M47.1479 45.7897C45.9649 46.2654 44.8272 46.8247 43.7412 47.4482C43.7153 47.4611 43.6894 47.474 43.67 47.4868C42.2285 48.3225 40.9162 49.2676 39.7397 50.3026L39.7139 49.319C39.6621 47.2811 39.6104 45.2368 39.5522 43.1989C39.9595 43.1282 40.3668 43.0832 40.7805 43.0768C42.8491 43.0318 44.8724 43.8739 46.4691 45.1854C46.7018 45.3782 46.9281 45.5775 47.1479 45.7897Z" fill="#FFDB43"/>
<path d="M38.226 38.4803C41.0865 37.4775 44.3419 37.5437 47.1584 38.6635C49.975 39.7828 52.3804 41.9659 53.7566 44.6538C53.9215 44.9745 54.2486 45.159 54.5873 45.159C54.7289 45.159 54.8737 45.1263 55.0088 45.0581C55.4671 44.826 55.6488 44.2687 55.416 43.8129C53.8361 40.731 51.0784 38.2283 47.8495 36.9445C44.6199 35.6607 40.8861 35.5849 37.6067 36.7349C37.1219 36.9047 36.8672 37.4331 37.0385 37.9152C37.2098 38.398 37.7418 38.652 38.226 38.4803Z" fill="#EFA30C"/>
<path d="M38.6167 44.34C41.408 43.5532 44.637 44.702 46.2918 47.0716C46.4722 47.33 46.7631 47.4682 47.0572 47.4682C47.2402 47.4682 47.425 47.4148 47.5873 47.303C48.0088 47.0111 48.1135 46.4345 47.82 46.0147C45.7256 43.017 41.644 41.5622 38.1086 42.5593C37.6141 42.6988 37.3271 43.2105 37.468 43.7023C37.607 44.1941 38.1209 44.4802 38.6167 44.34Z" fill="#EFA30C"/>
<path d="M127.106 63.2113C125.315 63.642 123.35 64.047 121.217 64.4263C113.143 65.8663 102.728 66.9399 90.9181 67.5314C89.7286 63.5327 87.8152 59.817 85.2876 56.5512C84.6412 55.7091 83.9495 54.8926 83.219 54.1148C86.9295 50.0454 91.9459 47.1332 97.195 46.0404C98.6042 45.7447 100.052 45.5775 101.513 45.5325C108.12 45.3139 114.707 47.6154 119.588 51.8583C123.001 54.8219 125.625 58.8077 127.106 63.2113Z" fill="#FFF57D"/>
<path d="M121.217 64.4264C118.948 64.8314 116.504 65.2042 113.892 65.5514C107.189 66.4321 99.4122 67.1071 90.9181 67.5314C90.2328 65.2364 89.3149 63.0378 88.1772 60.9549C87.3303 59.412 86.3607 57.9463 85.2876 56.5513C85.4751 56.4163 85.6561 56.2877 85.8435 56.1591C90.6595 52.8869 96.4192 50.7462 102.25 50.9648C108.087 51.1898 113.957 53.9991 117.092 58.8977C117.642 59.7592 118.107 60.6785 118.767 61.4628C119.419 62.2471 120.253 62.8835 120.822 63.7256C120.977 63.9507 121.107 64.1821 121.217 64.4264Z" fill="#FCE263"/>
<path d="M113.892 65.5514C111.158 65.9114 108.242 66.2392 105.165 66.5221C100.718 66.9399 95.9407 67.2807 90.9179 67.5314C90.7369 66.9271 90.543 66.3357 90.3296 65.7442C89.7349 64.0921 89.0174 62.4913 88.177 60.9549C89.6121 60.1642 91.1506 59.5341 92.6956 58.9813C97.0073 57.4577 101.791 56.4998 106.122 57.972C109.665 59.1741 112.58 62.0606 113.892 65.5514Z" fill="#FFDB43"/>
<path d="M105.166 66.5221C100.718 66.9399 95.9409 67.2807 90.9181 67.5314C90.7371 66.9271 90.5432 66.3357 90.3298 65.7442C92.114 64.9728 93.9305 64.2271 95.8504 63.9378C99.1278 63.4492 102.58 64.4521 105.166 66.5221Z" fill="#FCC322"/>
<path d="M104.888 50.5205C97.4401 49.2142 89.3176 51.9348 84.1882 57.4583C83.8391 57.8338 83.8636 58.4188 84.2412 58.7659C84.618 59.1131 85.2082 59.0899 85.556 58.7139C90.2659 53.641 97.7258 51.1416 104.563 52.3437C111.4 53.5459 117.546 58.44 120.221 64.8108C120.37 65.1663 120.716 65.3804 121.08 65.3804C121.199 65.3804 121.321 65.3579 121.438 65.3084C121.913 65.1116 122.137 64.5697 121.939 64.0978C119.026 57.16 112.333 51.8307 104.888 50.5205Z" fill="#EFA30C"/>
<path d="M101.838 56.4092C96.984 56.0813 91.7337 57.7213 86.228 61.2731C85.7968 61.5514 85.6733 62.1249 85.9539 62.5537C86.2325 62.9818 86.8085 63.1046 87.2409 62.8262C92.4021 59.4968 97.2769 57.9604 101.714 58.2555C106.302 58.5621 111.619 61.491 112.904 66.4983C113.012 66.9168 113.391 67.1952 113.806 67.1945C113.882 67.1945 113.959 67.1855 114.036 67.1656C114.535 67.0396 114.835 66.5349 114.708 66.0399C113.38 60.8687 107.967 56.8174 101.838 56.4092Z" fill="#EFA30C"/>
<path d="M97.5214 63.131C94.2847 63.1695 91.037 64.4128 88.6103 66.5426C88.225 66.8808 88.1882 67.4658 88.5282 67.849C88.7118 68.0566 88.969 68.162 89.2263 68.162C89.4448 68.162 89.6653 68.0855 89.8417 67.9299C91.9388 66.0894 94.7462 65.0152 97.5434 64.9818C100.346 64.9561 103.173 65.957 105.314 67.748C105.708 68.0772 106.294 68.0264 106.625 67.6349C106.956 67.244 106.906 66.6603 106.511 66.3318C104.034 64.2586 100.741 63.0917 97.5214 63.131Z" fill="#EFA30C"/>
<path d="M134.094 61.0127C133.531 61.257 132.872 61.5206 132.083 61.7906C131.54 61.9835 130.926 62.1763 130.254 62.3756C128.605 57.3548 125.625 52.7969 121.734 49.4154C116.459 44.8382 109.445 42.2732 102.328 42.2861C102.05 41.8682 101.765 41.4568 101.468 41.0582C100.951 40.3446 100.395 39.6503 99.813 38.9817C106.167 36.3846 113.576 36.4039 119.633 39.1296C126.252 42.1189 131.514 48.4833 133.37 55.7477C133.816 57.477 134.048 59.2448 134.094 61.0127Z" fill="#FFF57D"/>
<path d="M132.083 61.7906C131.54 61.9835 130.926 62.1763 130.254 62.3756C128.605 57.3548 125.625 52.7969 121.734 49.4155C116.459 44.8383 109.445 42.2732 102.328 42.2861C102.05 41.8682 101.765 41.4568 101.468 41.0582C105.34 40.2611 109.49 40.9554 113.407 41.8425C116.653 42.5754 119.982 43.4882 122.561 45.584C123.977 46.7411 125.108 48.2069 126.155 49.6983C128.747 53.3948 130.978 57.4256 132.083 61.7906Z" fill="#FCE263"/>
<path d="M132.984 61.8491C131.819 54.6831 127.464 48.0513 121.334 44.1099C115.203 40.1691 107.334 38.9426 100.285 40.8281C99.7886 40.9612 99.4944 41.469 99.6282 41.9621C99.7614 42.4558 100.272 42.7496 100.769 42.6159C107.317 40.8634 114.628 42.0032 120.323 45.665C126.018 49.3261 130.064 55.4873 131.146 62.1448C131.22 62.5993 131.615 62.9221 132.064 62.9221C132.113 62.9221 132.163 62.9188 132.214 62.9105C132.721 62.8288 133.066 62.3538 132.984 61.8491Z" fill="#EFA30C"/>
<path d="M87.5503 67.6792C85.7144 67.7564 83.8527 67.8207 81.978 67.8721C78.1446 67.975 74.2466 68.0328 70.3034 68.0328C59.8699 68.0328 49.4881 67.6471 40.1665 66.9271C40.1019 64.4971 40.0437 62.0735 39.979 59.6434C39.9402 58.0363 39.895 56.4291 39.8562 54.8219C41.2913 53.0926 43.0948 51.5819 45.241 50.3283C45.2669 50.3155 45.2927 50.3026 45.3121 50.2833C47.9948 48.7276 51.0783 47.6476 54.2265 47.1654C56.9221 46.754 59.6889 46.7218 62.4427 47.069C65.5262 47.4547 68.5321 48.2969 71.37 49.5697C73.7295 50.6369 75.9338 51.9869 77.9119 53.5876C78.5971 54.1405 79.2565 54.7319 79.8771 55.3362C83.342 58.7048 86.0182 63.0313 87.5503 67.6792Z" fill="#FFF57D"/>
<path d="M81.978 67.8721C78.9203 67.9557 75.8239 68.0071 72.6887 68.02C71.9 68.0328 71.0985 68.0328 70.3033 68.0328C60.4969 68.0328 50.7357 67.6921 41.8601 67.0492C41.2913 67.0107 40.7289 66.9721 40.1665 66.9271C40.1018 64.4971 40.0436 62.0735 39.979 59.6434C44.795 55.2655 54.0907 48.689 64.2979 51.3376C73.6648 53.7676 79.1789 62.0606 81.978 67.8721Z" fill="#FCE263"/>
<path d="M72.6887 68.0199C71.9 68.0328 71.0984 68.0328 70.3033 68.0328C67.7822 68.0328 65.2676 68.0135 62.7659 67.9621C58.7644 67.8978 54.8082 67.7692 50.949 67.5892C47.8396 67.4414 44.8014 67.2614 41.8601 67.0492C44.9824 63.7385 52.3647 56.6284 57.8335 57.1234C64.0846 57.6891 71.2342 60.7363 72.6887 68.0199Z" fill="#FFDB43"/>
<path d="M62.7661 67.9621C58.7646 67.8978 54.8084 67.7693 50.9492 67.5893C52.7528 66.2457 54.9183 65.2299 57.1873 65.4807C59.3464 65.7185 61.2405 66.7535 62.7661 67.9621Z" fill="#FCC322"/>
<path d="M63.2571 50.3624C53.8993 48.6209 43.9073 52.6369 38.3926 60.3538C38.0946 60.7704 38.1935 61.3483 38.6124 61.644C39.0319 61.941 39.6124 61.842 39.9098 61.4261C44.9319 54.3977 54.3958 50.5945 62.9145 52.1817C71.4371 53.767 78.875 60.7125 81.0024 69.0717C81.1085 69.4908 81.4879 69.7705 81.9042 69.7698C81.9792 69.7698 82.0561 69.7609 82.1331 69.7416C82.6315 69.6162 82.9327 69.1128 82.806 68.6172C80.4711 59.4396 72.6149 52.1033 63.2571 50.3624Z" fill="#EFA30C"/>
<path d="M64.8764 57.8396C60.6771 56.1302 55.6401 56.3185 51.0543 58.3545C47.1233 60.0999 43.5052 63.1927 40.593 67.298C40.2969 67.7152 40.3965 68.2932 40.816 68.5876C41.2368 68.8833 41.8167 68.7824 42.1134 68.3658C44.8336 64.5318 48.188 61.655 51.8132 60.0446C55.9368 58.2131 60.4418 58.0343 64.1711 59.5528C68.1577 61.1747 71.1074 64.8989 71.5107 68.8197C71.5592 69.2961 71.9639 69.6509 72.4352 69.6509C72.4668 69.6509 72.4991 69.6496 72.5308 69.6458C73.0428 69.5943 73.4139 69.1398 73.3621 68.6313C72.8831 63.9789 69.5514 59.7424 64.8764 57.8396Z" fill="#EFA30C"/>
<path d="M57.4786 64.2316C54.2089 64.1139 50.9004 65.6111 48.8499 68.1479C48.528 68.5465 48.5927 69.1295 48.9928 69.4497C49.3936 69.7692 49.9793 69.7062 50.3012 69.3076C51.9903 67.2177 54.7183 65.9737 57.4094 66.0817C60.1044 66.182 62.7263 67.6182 64.2532 69.829C64.4336 70.0906 64.7251 70.2308 65.0212 70.2308C65.2022 70.2308 65.3858 70.1781 65.5467 70.0681C65.9708 69.7788 66.0788 69.2022 65.7879 68.7811C63.9339 66.0971 60.7502 64.3537 57.4786 64.2316Z" fill="#EFA30C"/>
<path d="M136.977 63.1856C135.102 95.991 105.916 122.136 70.3036 122.136C60.1158 122.136 50.4515 119.996 41.8087 116.171C20.2306 106.63 4.96825 86.6052 3.63013 63.1856C6.76534 64.9342 12.9065 66.9078 24.9755 68.5793H24.9819C24.9949 68.5793 25.0078 68.5857 25.0207 68.5857C27.3673 68.9071 29.7462 69.1964 32.0798 69.4407C34.129 69.6593 36.2687 69.8585 38.4407 70.0386C48.2213 70.8421 59.2366 71.2729 70.3036 71.2729C76.949 71.2729 83.4974 71.125 89.7743 70.8293C101.72 70.27 112.354 69.2221 120.726 67.795C124.055 67.2292 127.022 66.6057 129.575 65.9306C132.782 65.0821 135.232 64.1756 136.977 63.1856Z" fill="#FEFFFA"/>
<path d="M30.263 65.9756C29.914 65.9371 29.5713 65.8921 29.2223 65.8535C28.3366 65.7442 27.4575 65.6349 26.5719 65.5192C25.4018 60.6784 24.193 55.7798 22.9583 50.939C19.7196 38.2296 16.1255 25.0701 12.2727 11.8078C13.8177 11.1007 15.4467 10.6121 17.108 10.3421C18.0842 10.1878 19.0732 10.1042 20.0623 10.1042C22.5252 23.5916 24.9881 37.0789 27.4446 50.5662L30.263 65.9756Z" fill="#F76D4D"/>
<path d="M27.4442 50.5662L30.2627 65.9756C29.9136 65.9371 29.571 65.8921 29.2219 65.8535L17.1077 10.3421C18.0838 10.1878 19.0728 10.1042 20.0619 10.1042C22.5248 23.5916 24.9877 37.0789 27.4442 50.5662Z" fill="#E24134"/>
<path d="M32.2927 1.20826C31.7794 1.23526 31.3851 1.67048 31.4122 2.18156L34.8694 67.316C34.8952 67.8097 35.3063 68.1922 35.7976 68.1922C35.8144 68.1922 35.8313 68.1922 35.8474 68.1909C36.3607 68.1646 36.755 67.7287 36.7279 67.2183L33.2707 2.08385C33.2436 1.57277 32.8079 1.17741 32.2927 1.20826Z" fill="#BA1327"/>
<path d="M18.0783 9.67549C17.971 9.17534 17.4733 8.85519 16.9742 8.96319C16.4719 9.06991 16.1507 9.5617 16.258 10.0612L28.5506 67.3643C28.6437 67.7995 29.0296 68.0965 29.4595 68.0965C29.5241 68.0965 29.5894 68.0907 29.6547 68.0765C30.1576 67.9698 30.4783 67.4787 30.371 66.9785L18.0783 9.67549Z" fill="#BA1327"/>
<path d="M23.1005 65.0307C16.8494 64.0857 12.5894 63.0892 9.69338 62.1828C8.18718 61.7135 7.04946 61.2699 6.1897 60.8649C6.22202 60.7235 6.24141 60.582 6.23494 60.4278C6.08626 56.7956 7.2951 53.0734 9.5641 50.2191C11.6715 47.5705 14.7162 45.6354 18.013 44.8126C18.5431 46.8312 19.0602 48.8369 19.5709 50.8298C19.6485 51.1319 19.7261 51.4341 19.8037 51.7298C20.922 56.1463 22.0274 60.6078 23.1005 65.0307Z" fill="#FFF57D"/>
<path d="M23.1007 65.0306C20.7541 64.6706 18.6855 64.3106 16.8691 63.9506C13.8437 63.3528 11.5036 62.7485 9.6936 62.1827C9.94571 58.6727 11.9755 55.3234 14.8392 53.2019C16.2679 52.1412 17.871 51.3569 19.5712 50.8297C19.6487 51.1319 19.7263 51.434 19.8039 51.7298C20.237 53.4462 20.6701 55.1691 21.1032 56.892C21.7755 59.6049 22.4413 62.3242 23.1007 65.0306Z" fill="#FCE263"/>
<path d="M21.103 56.892C21.7753 59.6049 22.4412 62.3242 23.1005 65.0306C20.754 64.6706 18.6854 64.3106 16.8689 63.9506C17.5929 61.212 18.9957 58.692 21.103 56.892Z" fill="#FFDB43"/>
<path d="M22.0229 50.5437C21.946 50.0378 21.4676 49.6874 20.9628 49.7684C17.6401 50.2737 14.4991 52.0351 12.3458 54.6015C10.1931 57.1684 9.01275 60.5563 9.10842 63.8973C9.12329 64.3994 9.53701 64.7967 10.0386 64.7967C10.0477 64.7967 10.0561 64.7966 10.0651 64.796C10.5797 64.7819 10.9837 64.3556 10.9689 63.8452C10.8861 60.9497 11.9094 58.0125 13.7757 55.7875C15.642 53.5632 18.3641 52.0358 21.2433 51.598C21.7521 51.5215 22.1005 51.049 22.0229 50.5437Z" fill="#EFA30C"/>
<path d="M21.7514 56.0286C18.2199 57.5676 15.6523 61.1715 15.3639 64.9959C15.3258 65.5051 15.7098 65.95 16.2224 65.9879C16.2457 65.9892 16.2702 65.9905 16.2935 65.9905C16.7758 65.9905 17.1837 65.6202 17.2199 65.1342C17.4584 61.9738 19.58 58.9954 22.4987 57.7239C22.9693 57.5188 23.1839 56.973 22.977 56.505C22.7708 56.037 22.222 55.8235 21.7514 56.0286Z" fill="#EFA30C"/>
<path d="M35.9187 116.912C40.5614 125.288 54.0034 131.214 69.5541 131.214C84.1474 131.214 97.2209 125.778 102.467 118.039C92.8303 122.724 81.892 125.375 70.3033 125.375C57.8148 125.375 46.0813 122.296 35.9187 116.912Z" fill="#DAEFE8"/>
<path d="M140.31 58.4998C140.127 56.8675 138.815 55.4571 136.312 54.1996C134.039 46.2127 128.358 39.5108 120.974 36.1808C113.751 32.9259 104.842 33.0674 97.431 36.4816C92.9292 32.2304 87.2897 29.2481 81.4284 28.0415C72.9394 26.2948 63.6353 28.1675 56.2659 33.0423C55.4779 32.3917 54.6505 31.7977 53.7907 31.2757C49.4253 28.6277 43.9248 27.891 39.1896 29.1986C38.9576 20.1541 38.7249 11.1097 38.4889 2.06521C38.4695 1.32334 37.9452 0.689478 37.2167 0.526833C33.1474 -0.38025 28.9113 -0.112175 24.9642 1.30149C24.2453 1.55863 23.8025 2.27864 23.9014 3.03272C25.1452 12.6024 26.2693 22.1033 27.2681 31.4493C25.8562 23.713 24.4457 15.9775 23.0332 8.24121C22.9001 7.51156 22.2847 6.96448 21.54 6.91498C17.3918 6.63726 13.2475 7.54499 9.55117 9.54109C8.87823 9.90431 8.55049 10.6847 8.76446 11.4163C11.7407 21.6128 14.5636 31.7527 17.1901 41.6805C13.2158 42.6763 9.54859 45.0176 7.01068 48.2101C5.54068 50.0583 4.44109 52.2087 3.76104 54.4818C1.6097 55.6641 0.472612 56.9768 0.298721 58.4805C0.294196 58.5145 0.295488 58.548 0.291609 58.5814C0.290963 58.591 0.287733 58.6 0.287733 58.6097L0.285799 58.6675C0.281921 58.7357 0.272217 58.8045 0.272217 58.8733C0.272217 58.9337 0.274163 58.9948 0.277395 59.0552C0.27287 59.313 0.272217 59.5682 0.272217 59.826C0.272217 82.5121 12.6502 102.541 31.4156 114.313C34.3233 125.84 50.5249 134.454 69.5541 134.454C87.9924 134.454 103.737 126.481 107.376 115.412C127.152 103.814 140.334 83.2353 140.334 59.826C140.334 59.5521 140.333 59.284 140.329 59.0218C140.331 58.9723 140.334 58.9228 140.334 58.8733C140.334 58.7331 140.324 58.5955 140.31 58.4998ZM119.63 39.1309C126.249 42.1163 131.513 48.4807 133.368 55.7464C133.817 57.4776 134.051 59.2448 134.09 61.0101C133.143 61.4293 131.893 61.8909 130.253 62.375C128.607 57.3561 125.625 52.7995 121.731 49.4154C116.459 44.8389 109.443 42.2758 102.326 42.2854C101.563 41.1373 100.727 40.0315 99.8157 38.9804C106.168 36.3871 113.576 36.4038 119.63 39.1309ZM83.221 54.1122C86.9303 50.048 91.9466 47.1333 97.1931 46.0391C98.6017 45.7453 100.053 45.5743 101.511 45.5312C108.12 45.3114 114.706 47.6167 119.588 51.8557C123.001 54.8213 125.627 58.809 127.102 63.212C118.557 65.2653 105.844 66.7837 90.9188 67.5301C89.4197 62.5035 86.7835 57.9115 83.221 54.1122ZM87.5521 67.6773C81.9585 67.9074 76.1742 68.0309 70.3033 68.0309C59.8698 68.0309 49.4887 67.649 40.1683 66.9258C40.0617 62.8905 39.9576 58.8559 39.8535 54.8219C41.2893 53.0907 43.0948 51.5793 45.239 50.3264C45.2648 50.3129 45.2894 50.2994 45.3146 50.2852C47.9967 48.7243 51.0789 47.6456 54.2257 47.1654C56.9246 46.7565 59.6875 46.7244 62.442 47.0696C65.5267 47.4534 68.5307 48.2949 71.368 49.5716C73.732 50.6343 75.9331 51.9843 77.9125 53.5863C78.599 54.1418 79.259 54.7287 79.8757 55.333C83.3399 58.7055 86.0194 63.032 87.5521 67.6773ZM80.7678 31.2134C86.373 32.3679 91.7624 35.3348 95.9474 39.5719C96.8744 40.5047 97.7277 41.4992 98.5176 42.5355C97.8479 42.6242 97.1821 42.7316 96.5247 42.8685C90.5613 44.1118 85.0705 47.2818 80.8848 51.8519C80.5835 51.5883 80.2804 51.326 79.9675 51.0734C77.7722 49.2952 75.3293 47.7973 72.71 46.6203C69.8779 45.3455 66.8952 44.4679 63.8318 43.9967C62.5771 40.6918 60.8168 37.7506 58.6622 35.354C65.2191 31.2359 73.3447 29.684 80.7678 31.2134ZM52.0938 34.0407C53.1326 34.6713 54.1204 35.4209 55.0299 36.2688C57.1153 38.2141 58.8587 40.7329 60.162 43.6316C58.0055 43.5345 55.8522 43.6419 53.7325 43.9633C50.2114 44.5007 46.7588 45.7048 43.7431 47.4463C43.7173 47.4592 43.6921 47.4733 43.6668 47.4881C42.2272 48.3226 40.9169 49.265 39.7378 50.3L39.7132 49.3177C39.5691 43.7299 39.4243 38.1467 39.2769 32.5608C43.3191 31.1574 48.2333 31.6981 52.0938 34.0407ZM35.2671 3.45573C35.5108 12.7818 35.75 22.1091 35.9891 31.4358L35.9911 31.5007V31.5065V31.5116C36.1494 37.4768 36.3027 43.4361 36.4565 49.4L36.5819 54.3051C36.6873 58.4213 36.7939 62.5376 36.9025 66.6539C35.8256 66.5581 34.7628 66.4565 33.7169 66.3504C33.329 61.1079 32.8875 55.7322 32.3684 49.931C31.0251 35.0609 29.3218 19.5994 27.3036 3.9533C29.9023 3.21851 32.6134 3.04879 35.2671 3.45573ZM12.2701 11.8091C14.7311 10.688 17.3847 10.1074 20.0629 10.1049C22.5258 23.5915 24.9874 37.0776 27.4458 50.5655L30.2604 65.9731C29.0283 65.8323 27.7981 65.6812 26.5686 65.5179C25.4024 60.6752 24.191 55.7772 22.9583 50.9377C19.7209 38.2289 16.1267 25.0721 12.2701 11.8091ZM6.23625 60.4303C6.08304 56.7955 7.2964 53.0727 9.56539 50.219C11.6695 47.5717 14.7149 45.6322 18.0117 44.8138C18.6181 47.132 19.2173 49.4418 19.8011 51.7323C20.9246 56.1462 22.0306 60.6084 23.1011 65.0332C13.6082 63.5983 8.71016 62.0477 6.18841 60.8629C6.22138 60.7241 6.24207 60.5807 6.23625 60.4303ZM69.5541 131.214C54.0034 131.214 40.5614 125.288 35.9187 116.912C46.0813 122.296 57.8148 125.375 70.3033 125.375C81.8919 125.375 92.8303 122.724 102.467 118.039C97.2209 125.778 84.1474 131.214 69.5541 131.214ZM70.3033 122.136C34.6924 122.136 5.50577 95.9878 3.62722 63.1875C6.76632 64.9342 12.9068 66.9097 24.9764 68.5779C24.9777 68.5779 24.979 68.5779 24.9803 68.5786C24.9945 68.5805 25.0088 68.5825 25.023 68.5844C27.3682 68.9084 29.7446 69.1951 32.0801 69.4375C34.1287 69.6567 36.2697 69.8585 38.443 70.0385C48.2197 70.844 59.2369 71.2703 70.3033 71.2703C76.948 71.2703 83.499 71.1218 89.7739 70.8286C106.474 70.0508 120.608 68.3118 129.572 65.9313C132.779 65.0821 135.228 64.1763 136.979 63.1869C135.101 95.9878 105.914 122.136 70.3033 122.136Z" fill="#420606"/>
<path d="M136.977 63.1856C135.102 95.991 105.915 122.136 70.3033 122.136C60.1154 122.136 50.4512 119.996 41.8083 116.171C63.3476 118.838 111.384 118.813 120.725 67.795C124.054 67.2292 127.022 66.6057 129.575 65.9306C132.781 65.0821 135.231 64.1756 136.977 63.1856Z" fill="#DAEFE8"/>
<path d="M82.1772 94.0258C82.1772 90.7472 85.2782 88.0896 89.1032 88.0896C92.9275 88.0896 96.0284 90.7472 96.0284 94.0258C96.0284 97.3044 92.9275 99.962 89.1032 99.962C85.2782 99.962 82.1772 97.3044 82.1772 94.0258Z" fill="#F98291"/>
<path d="M44.5779 94.0258C44.5779 90.7472 47.6788 88.0896 51.5032 88.0896C55.3281 88.0896 58.4291 90.7472 58.4291 94.0258C58.4291 97.3044 55.3281 99.962 51.5032 99.962C47.6788 99.962 44.5779 97.3044 44.5779 94.0258Z" fill="#F98291"/>
<path d="M78.0219 85.8762C78.0219 87.502 77.5687 89.0217 76.7904 90.2907C75.4193 92.5401 73.023 94.0264 70.3028 94.0264C67.5819 94.0264 65.1914 92.5401 63.8197 90.2907C63.0362 89.0217 62.583 87.502 62.583 85.8762C62.583 85.3696 62.6334 84.8798 62.7168 84.4015H77.8874C77.9714 84.8798 78.0219 85.3696 78.0219 85.8762Z" fill="#612D2D"/>
<path d="M76.7904 90.2908C75.4193 92.5402 73.023 94.0265 70.3028 94.0265C67.5819 94.0265 65.1921 92.5402 63.8203 90.2908C65.567 88.7209 67.834 87.7746 70.3028 87.7746C72.7825 87.7746 75.0444 88.7209 76.7904 90.2908Z" fill="#F98291"/>
<path d="M52.6609 86.3898C52.0927 86.3898 51.5975 85.9739 51.518 85.3985C51.4301 84.7698 51.8716 84.1899 52.5038 84.1019L56.641 83.5316C55.4936 82.4343 54.4961 81.5143 53.5336 80.6625C53.0565 80.2402 53.0145 79.5137 53.4385 79.0399C53.862 78.5668 54.5918 78.5231 55.0702 78.9448C56.5046 80.2158 58.0101 81.6288 59.9501 83.5272C60.2643 83.8344 60.3761 84.2915 60.2371 84.7075C60.0988 85.1234 59.7355 85.4249 59.2991 85.4847L52.8212 86.3789C52.7675 86.3866 52.7132 86.3898 52.6609 86.3898Z" fill="#420606"/>
<path d="M87.9453 86.3898C87.8929 86.3898 87.8386 86.3866 87.785 86.3789L81.3064 85.4847C80.87 85.4249 80.5067 85.1234 80.3678 84.7075C80.2294 84.2915 80.3412 83.8338 80.6554 83.5272C81.9683 82.2427 83.7098 80.5603 85.536 78.9448C86.015 78.5225 86.7436 78.5662 87.1683 79.04C87.5917 79.5144 87.5497 80.2402 87.0726 80.6626C85.9833 81.6262 84.9206 82.6175 83.9645 83.5317L88.1024 84.1019C88.7346 84.19 89.1761 84.7698 89.0882 85.3986C89.0087 85.9739 88.5128 86.3898 87.9453 86.3898Z" fill="#420606"/>
</svg>
