<svg width="24" height="24" viewBox="0 0 24 24" fill="none" xmlns="http://www.w3.org/2000/svg">
<path d="M21.793 12.8763C22.5909 12.0795 23.1995 11.1135 23.5737 10.0498C23.9479 8.98613 24.0782 7.85191 23.9549 6.73106C23.8317 5.61022 23.458 4.53142 22.8616 3.57446C22.2652 2.6175 21.4612 1.80687 20.5093 1.20251C18.0977 -0.393184 14.8703 -0.405181 12.4348 1.16652C10.3232 2.52226 9.15944 4.63385 8.95548 6.81744C8.79951 8.40113 8.19963 9.87685 7.09584 10.9806L7.05984 11.0166C5.66811 12.4084 5.66811 14.532 6.97586 15.8277L8.16363 17.0155C8.79222 17.6437 9.64452 17.9965 10.5332 17.9965C11.4218 17.9965 12.2741 17.6437 12.9027 17.0155C14.0665 15.8517 15.6022 15.2158 17.2699 15.0359C18.9136 14.8559 20.5213 14.136 21.793 12.8763ZM5.11622 21.4306C5.44015 22.1025 5.33217 22.9184 4.76828 23.4702C4.52406 23.7182 4.2128 23.8894 3.87266 23.9629C3.53253 24.0365 3.17833 24.0092 2.8535 23.8844C2.52866 23.7595 2.24733 23.5426 2.04401 23.2602C1.84068 22.9778 1.72421 22.6421 1.70887 22.2945C1.36121 22.2791 1.02559 22.1627 0.743173 21.9593C0.460757 21.756 0.243825 21.4747 0.118987 21.1498C-0.00585029 20.825 -0.0331646 20.4708 0.0403947 20.1307C0.113954 19.7905 0.285188 19.4793 0.533093 19.2351C1.08499 18.6832 1.91283 18.5632 2.5727 18.8871L5.54813 15.9717C5.7161 16.1996 5.90806 16.4636 6.12402 16.6795L7.3118 17.8673C7.56375 18.1073 7.8037 18.3112 8.11564 18.4912L5.11622 21.4306Z" fill="#34332F"/>
</svg>
