<svg width="86" height="140" viewBox="0 0 86 140" fill="none" xmlns="http://www.w3.org/2000/svg">
<path d="M43 86C32.0111 86 22.4364 82.3577 14.276 75.0732C6.11555 67.7887 1.43652 58.6902 0.238889 47.7778H10.0333C11.1481 56.0592 14.8318 62.9074 21.0843 68.3222C27.3368 73.737 34.6421 76.4444 43 76.4444C52.3167 76.4444 60.2207 73.2003 66.7121 66.7121C73.2035 60.2239 76.4476 52.3198 76.4444 43C76.4413 33.6801 73.1971 25.7777 66.7121 19.2927C60.2271 12.8076 52.323 9.56192 43 9.55555C37.5056 9.55555 32.3694 10.8296 27.5917 13.3778C22.8139 15.9259 18.7926 19.4296 15.5278 23.8889H28.6667V33.4444H0V4.77778H9.55555V16.0056C13.6167 10.9093 18.5744 6.96759 24.4288 4.18055C30.2831 1.39352 36.4736 0 43 0C48.9722 0 54.567 1.13552 59.7843 3.40655C65.0017 5.67759 69.5406 8.74174 73.401 12.599C77.2614 16.4563 80.3272 20.9951 82.5982 26.2157C84.8692 31.4362 86.0032 37.031 86 43C85.9968 48.969 84.8629 54.5638 82.5982 59.7843C80.3335 65.0048 77.2678 69.5437 73.401 73.401C69.5342 77.2582 64.9953 80.324 59.7843 82.5982C54.5734 84.8724 48.9786 86.0063 43 86ZM56.3778 63.0667L38.2222 44.9111V19.1111H47.7778V41.0889L63.0667 56.3778L56.3778 63.0667Z" fill="#34332F"/>
<path d="M9.952 126.384C7.264 126.384 5.32267 125.765 4.128 124.528C2.95467 123.291 2.368 121.499 2.368 119.152V108.464H6.432V119.344C6.432 120.581 6.72 121.52 7.296 122.16C7.872 122.779 8.75733 123.088 9.952 123.088C11.168 123.088 12.064 122.779 12.64 122.16C13.216 121.52 13.504 120.581 13.504 119.344V102.16H17.568V119.152C17.568 121.499 16.9707 123.291 15.776 124.528C14.5813 125.765 12.64 126.384 9.952 126.384ZM27.9368 126.384C26.6781 126.384 25.4514 126.256 24.2568 126C23.0621 125.723 22.0168 125.36 21.1208 124.912L22.2728 121.68C22.7208 121.893 23.2328 122.117 23.8088 122.352C24.4061 122.565 25.0461 122.747 25.7288 122.896C26.4328 123.045 27.1368 123.12 27.8408 123.12C28.8008 123.12 29.5581 122.971 30.1128 122.672C30.6674 122.352 30.9448 121.883 30.9448 121.264C30.9448 120.837 30.8061 120.485 30.5288 120.208C30.2514 119.909 29.8354 119.632 29.2808 119.376C28.7261 119.12 28.0434 118.864 27.2328 118.608C26.0168 118.203 24.9821 117.765 24.1288 117.296C23.2754 116.805 22.6248 116.229 22.1768 115.568C21.7288 114.885 21.5048 114.032 21.5048 113.008C21.5048 111.941 21.7714 111.045 22.3048 110.32C22.8594 109.595 23.6701 109.04 24.7368 108.656C25.8034 108.272 27.0834 108.08 28.5768 108.08C29.7074 108.08 30.7421 108.176 31.6808 108.368C32.6194 108.56 33.3554 108.805 33.8888 109.104V112.368C33.5261 112.197 33.0568 112.027 32.4808 111.856C31.9048 111.685 31.2861 111.547 30.6248 111.44C29.9634 111.312 29.3128 111.248 28.6728 111.248C27.6061 111.248 26.8168 111.408 26.3048 111.728C25.8141 112.027 25.5688 112.421 25.5688 112.912C25.5688 113.296 25.7074 113.627 25.9848 113.904C26.2834 114.16 26.7421 114.405 27.3608 114.64C27.9794 114.875 28.7581 115.163 29.6968 115.504C30.7634 115.867 31.6914 116.283 32.4808 116.752C33.2914 117.2 33.9101 117.765 34.3368 118.448C34.7848 119.131 35.0088 119.984 35.0088 121.008C35.0088 121.947 34.7848 122.821 34.3368 123.632C33.9101 124.443 33.1848 125.104 32.1608 125.616C31.1368 126.128 29.7288 126.384 27.9368 126.384ZM41.3075 115.408C40.3688 115.408 39.6115 115.269 39.0355 114.992C38.4808 114.693 38.0755 114.309 37.8195 113.84C37.5848 113.371 37.4675 112.88 37.4675 112.368C37.4675 112.005 37.5102 111.643 37.5955 111.28C37.7022 110.896 37.8515 110.544 38.0435 110.224L41.1155 110.64C41.0728 110.789 41.0302 110.949 40.9875 111.12C40.9662 111.291 40.9555 111.472 40.9555 111.664C40.9555 111.941 41.0302 112.165 41.1795 112.336C41.3502 112.507 41.6382 112.592 42.0435 112.592H46.0435V115.408H41.3075ZM41.3075 124.368C40.3688 124.368 39.6115 124.229 39.0355 123.952C38.4808 123.653 38.0755 123.269 37.8195 122.8C37.5848 122.331 37.4675 121.84 37.4675 121.328C37.4675 120.965 37.5102 120.603 37.5955 120.24C37.7022 119.856 37.8515 119.504 38.0435 119.184L41.1155 119.6C41.0728 119.749 41.0302 119.909 40.9875 120.08C40.9662 120.251 40.9555 120.432 40.9555 120.624C40.9555 120.901 41.0302 121.125 41.1795 121.296C41.3502 121.467 41.6382 121.552 42.0435 121.552H46.0435V124.368H41.3075ZM53.999 126.384C52.9963 126.384 52.047 126.277 51.151 126.064C50.2763 125.851 49.4123 125.509 48.559 125.04L49.679 122.064C50.1483 122.341 50.703 122.587 51.343 122.8C51.983 122.992 52.655 123.088 53.359 123.088C54.6817 123.088 55.727 122.587 56.495 121.584C57.2843 120.581 57.679 119.099 57.679 117.136C57.679 115.259 57.2843 113.829 56.495 112.848C55.727 111.867 54.5217 111.376 52.879 111.376C52.175 111.376 51.4603 111.472 50.735 111.664C50.0097 111.835 49.391 112.069 48.879 112.368V109.008C49.519 108.709 50.2337 108.485 51.023 108.336C51.8337 108.165 52.6657 108.08 53.519 108.08C55.4817 108.08 57.071 108.453 58.287 109.2C59.503 109.925 60.3883 110.971 60.943 112.336C61.519 113.68 61.807 115.28 61.807 117.136C61.807 120.101 61.135 122.384 59.791 123.984C58.4683 125.584 56.5377 126.384 53.999 126.384ZM57.0522 105.904C56.0922 105.904 55.3349 105.765 54.7802 105.488C54.2256 105.189 53.8309 104.827 53.5962 104.4C53.3402 103.952 53.2122 103.483 53.2122 102.992C53.2122 102.651 53.2656 102.288 53.3722 101.904C53.4576 101.499 53.5962 101.136 53.7882 100.816L56.8602 101.264C56.8176 101.371 56.7856 101.52 56.7642 101.712C56.7216 101.883 56.7002 102.043 56.7002 102.192C56.7002 102.469 56.7962 102.704 56.9882 102.896C57.1589 103.067 57.4469 103.152 57.8522 103.152H65.2122V105.904H57.0522ZM72.4265 126.32C70.5705 126.32 69.1305 125.925 68.1065 125.136C67.0825 124.325 66.3678 123.227 65.9625 121.84C65.5572 120.432 65.3545 118.8 65.3545 116.944C65.3545 114.875 65.5572 113.2 65.9625 111.92C66.3678 110.619 66.9652 109.669 67.7545 109.072C68.5652 108.453 69.5465 108.144 70.6985 108.144C71.4452 108.144 72.0958 108.283 72.6505 108.56C73.2052 108.837 73.6318 109.328 73.9305 110.032H74.0585C74.3145 109.307 74.7625 108.816 75.4025 108.56C76.0425 108.283 76.7465 108.144 77.5145 108.144C78.9438 108.144 80.0318 108.528 80.7785 109.296C81.5252 110.064 81.8985 111.205 81.8985 112.72V126H77.8345V113.296C77.8345 112.571 77.6958 112.08 77.4185 111.824C77.1625 111.568 76.8105 111.44 76.3625 111.44C75.8932 111.44 75.5412 111.568 75.3065 111.824C75.0718 112.08 74.9225 112.507 74.8585 113.104H73.0025C72.9172 112.443 72.7252 112.005 72.4265 111.792C72.1492 111.557 71.8292 111.44 71.4665 111.44C70.8052 111.44 70.3038 111.867 69.9625 112.72C69.6212 113.573 69.4505 114.992 69.4505 116.976C69.4505 118.277 69.5465 119.397 69.7385 120.336C69.9518 121.253 70.3145 121.957 70.8265 122.448C71.3385 122.917 72.0745 123.152 73.0345 123.152C73.3545 123.152 73.6318 123.141 73.8665 123.12C74.1012 123.077 74.3145 123.024 74.5065 122.96L74.9225 125.904C74.5812 126.053 74.1972 126.16 73.7705 126.224C73.3652 126.288 72.9172 126.32 72.4265 126.32ZM67.0415 105.904V104.176L69.9215 102.96H81.2815V105.904H67.0415Z" fill="#34332F"/>
</svg>
