<svg width="191" height="174" viewBox="0 0 191 174" fill="none" xmlns="http://www.w3.org/2000/svg">
<path d="M73.4187 116.433C72.8187 118.053 72.0187 119.643 71.0287 121.163C68.7687 124.623 65.7187 127.463 62.2087 129.373C54.1187 133.773 43.3187 134.193 32.5887 130.523C26.7387 128.523 18.9087 124.593 14.8687 117.233C13.1787 114.153 12.4387 110.403 12.7687 106.893C14.0187 106.733 15.1987 106.623 16.2187 106.853C16.5887 106.933 16.9487 107.063 17.2987 107.213C18.7187 107.873 19.9887 109.123 21.4187 110.523C22.9187 111.993 24.4787 113.503 26.4587 114.583C30.9087 116.983 36.5587 116.703 43.7487 113.723C44.4387 113.433 45.1387 113.133 45.8387 112.833C49.8787 111.103 53.6887 109.473 57.5287 109.783C60.7387 110.053 63.8187 111.693 67.0787 113.433C67.8787 113.853 68.6787 114.283 69.4987 114.693C70.7787 115.333 72.0787 115.943 73.4187 116.433Z" fill="#F76D4D"/>
<path d="M73.4187 116.433C72.8187 118.053 72.0187 119.643 71.0287 121.163C68.7687 124.623 65.7187 127.463 62.2087 129.373C54.1187 133.773 43.3187 134.193 32.5887 130.523C26.7387 128.523 18.9087 124.593 14.8687 117.233C13.1787 114.153 12.4387 110.403 12.7687 106.893C14.0187 106.733 15.1987 106.623 16.2187 106.853C16.5887 106.933 16.9487 107.063 17.2987 107.213C21.5287 114.493 29.5587 123.653 43.2987 124.253C56.0587 124.803 64.5087 119.513 69.4987 114.693C70.7787 115.333 72.0787 115.943 73.4187 116.433Z" fill="#E24134"/>
<path d="M168.379 128.343C167.979 130.103 166.569 131.683 164.879 132.283C164.869 132.293 164.869 132.293 164.859 132.293C163.769 132.673 163.079 133.743 163.179 134.893C163.569 139.453 162.969 142.403 161.209 144.443C159.749 146.133 156.949 147.153 155.099 145.973C154.289 145.463 153.269 145.453 152.459 145.943C147.119 149.113 141.029 149.463 136.559 146.853C135.809 146.413 134.879 146.403 134.109 146.813C126.769 150.703 119.349 151.373 113.209 148.683C112.609 148.413 111.929 148.393 111.319 148.623C106.599 150.393 101.949 150.303 97.8487 148.393C97.2387 148.103 96.5487 148.073 95.9187 148.303C88.6487 150.953 80.6687 151.143 73.4287 148.833C72.8387 148.643 72.1987 148.683 71.6287 148.943C66.8487 151.103 61.6687 151.143 57.0487 149.033C56.5487 148.803 55.9887 148.753 55.4587 148.873C48.8887 150.343 42.6887 149.993 36.6887 149.653L18.0887 148.613C14.6687 148.423 11.8587 145.843 11.5587 142.603C11.4187 141.123 11.7487 139.723 12.5387 138.573C13.0287 137.843 13.1087 136.913 12.7387 136.103C12.4987 135.593 12.3087 135.063 12.1587 134.513C11.1987 131.153 11.8187 127.313 13.7587 124.383C18.7487 130.153 25.5887 133.463 30.9587 135.293C36.3287 137.123 41.7287 138.033 46.8887 138.033C53.3487 138.033 59.4387 136.613 64.6187 133.793C68.2287 131.833 71.4287 129.053 73.9787 125.693C85.7987 131.153 97.9687 136.203 110.189 140.713C110.469 140.823 110.769 140.873 111.059 140.873C111.769 140.873 112.469 140.563 112.959 140.003C116.679 135.733 120.519 131.403 124.629 126.823C128.179 128.993 132.369 130.533 137.159 131.383C139.699 131.833 142.229 132.053 144.709 132.053C153.439 132.053 161.609 129.323 167.669 124.263C168.399 125.473 168.679 126.983 168.379 128.343Z" fill="#A55F30"/>
<path d="M164.879 132.283C164.869 132.293 164.869 132.293 164.859 132.293C163.769 132.673 163.079 133.743 163.179 134.893C163.569 139.453 162.969 142.403 161.209 144.443C159.749 146.133 156.949 147.153 155.099 145.973C154.289 145.463 153.269 145.453 152.459 145.943C147.119 149.113 141.029 149.463 136.559 146.853C135.809 146.413 134.879 146.403 134.109 146.812C126.769 150.703 119.349 151.372 113.209 148.682C112.609 148.412 111.929 148.392 111.319 148.622C106.599 150.392 101.949 150.303 97.8487 148.393C97.2387 148.103 96.5487 148.072 95.9187 148.302C88.6487 150.952 80.6687 151.142 73.4287 148.832C72.8387 148.642 72.1987 148.683 71.6287 148.943C66.8487 151.103 61.6687 151.143 57.0487 149.033C56.5487 148.803 55.9887 148.752 55.4587 148.872C48.8887 150.342 42.6887 149.992 36.6887 149.652L18.0887 148.612C14.6687 148.422 11.8587 145.843 11.5587 142.603C11.4187 141.123 11.7487 139.723 12.5387 138.573C13.0287 137.843 13.1087 136.913 12.7387 136.103C12.4987 135.593 12.3087 135.063 12.1587 134.513C15.9287 139.293 22.6087 141.803 28.5487 140.233C36.0787 145.853 46.5587 147.263 55.3087 143.823C56.1887 143.483 57.0687 143.092 57.9987 142.992C59.2187 142.862 60.4287 143.253 61.6087 143.573C70.8087 146.093 80.9587 144.963 89.3887 140.483C95.3787 144.173 103.149 144.793 109.659 142.103C110.809 141.623 111.969 141.032 113.219 141.052C114.179 141.072 115.089 141.442 116.009 141.742C122.009 143.762 128.919 142.903 134.249 139.483C137.729 140.653 141.319 141.513 144.949 142.033C147.139 142.353 149.379 142.542 151.539 142.122C157.029 141.072 160.999 136.423 164.499 132.062C164.619 132.142 164.749 132.223 164.879 132.283Z" fill="#91512D"/>
<path d="M26.6277 142.014C26.3387 141.274 25.9297 140.698 25.4177 140.101C25.2797 139.941 25.1517 139.77 25.0137 139.612C24.9377 139.525 24.8907 139.474 24.8607 139.446C24.6267 139.113 24.4267 138.762 24.2037 138.421C24.1787 138.382 24.1557 138.351 24.1377 138.326C24.1347 138.315 24.1337 138.309 24.1297 138.298C24.0567 138.052 23.9847 137.81 23.9287 137.56C23.5377 135.836 21.4557 134.66 19.7767 135.202C17.9497 135.794 17.0317 137.5 17.4207 139.354C17.7457 140.903 18.5177 142.419 19.6247 143.557C20.8807 144.847 22.8997 145.877 24.7237 145.368C26.0337 145.001 27.1667 143.397 26.6277 142.014Z" fill="#C97C47"/>
<path d="M40.0107 141.978C39.5747 141.376 39.1367 140.939 38.5917 140.457C38.3987 140.286 38.1987 140.122 38.0157 139.94C37.8397 139.765 37.2467 138.989 37.8237 139.772C37.3547 139.135 36.8567 138.638 36.0657 138.42C35.3617 138.226 34.4227 138.314 33.7977 138.716C32.5627 139.513 31.7817 141.407 32.7427 142.743C33.8877 144.333 35.6257 146.078 37.7727 145.877C38.7067 145.791 39.5157 145.439 40.0107 144.594C40.4437 143.853 40.5377 142.709 40.0107 141.978Z" fill="#C97C47"/>
<path d="M75.0657 135.345C74.5297 134.672 73.4457 134.133 72.5697 134.492C70.4247 135.373 68.7077 136.921 66.9757 138.427C65.8467 139.409 65.8947 141.468 66.9757 142.46C68.1797 143.566 69.8047 143.508 71.0097 142.46C72.5427 141.127 74.2157 139.764 75.2517 137.983C75.7287 137.16 75.6557 136.085 75.0657 135.345Z" fill="#C97C47"/>
<path d="M85.9727 138.165C85.2227 137.194 84.0367 137.067 82.9667 137.564C82.6797 137.698 82.3937 137.833 82.1067 137.966C82.0247 138.004 81.3247 138.328 81.5467 138.225C81.7697 138.121 81.0637 138.414 80.9787 138.445C80.6827 138.559 80.3867 138.662 80.0837 138.755C78.7767 139.158 77.8107 140.603 78.2547 141.977C78.6807 143.293 80.0747 144.236 81.4757 143.805C83.1007 143.305 84.6467 142.51 85.7907 141.225C86.5687 140.351 86.7067 139.114 85.9727 138.165Z" fill="#C97C47"/>
<path d="M134.447 140.397C133.58 138.736 132.495 137.234 131.375 135.737C130.404 134.439 128.773 133.888 127.369 134.972C125.975 136.047 126.085 137.761 127.093 139.041C128.25 140.508 129.42 141.945 130.801 143.21C132.755 145.001 135.677 142.759 134.447 140.397Z" fill="#C97C47"/>
<path d="M145.083 135.735C144.375 135.385 143.65 135.105 142.911 134.833C142.378 134.635 141.609 134.788 141.136 135.065C140.658 135.345 140.202 135.892 140.077 136.441C139.795 137.679 140.45 138.906 141.687 139.274C142.259 139.445 142.817 139.605 143.405 139.714C144.482 139.917 145.53 139.506 145.974 138.454C146.369 137.518 146.059 136.216 145.083 135.735Z" fill="#C97C47"/>
<path d="M170.709 72.3525C168.629 78.6525 162.909 83.3025 156.139 84.2125C124.439 88.4425 94.0687 89.0325 64.6887 89.6125C54.7087 89.8025 44.3887 90.0025 34.2787 89.2625C25.6987 88.6325 18.7687 81.9225 17.7987 73.3225C17.4687 70.4025 17.3687 67.4625 17.4887 64.5425C18.0287 52.1825 22.5887 40.1425 30.3487 31.1525C41.5187 18.2025 59.2787 9.91247 83.1387 6.50247C89.9587 5.52247 96.4887 5.03247 102.709 5.03247C113.329 5.03247 123.039 6.45247 131.729 9.28247C148.209 14.6525 161.479 25.4525 168.149 38.9325C169.709 42.1025 170.889 45.4725 171.669 48.9325C173.429 56.7525 173.139 65.0125 170.709 72.3525Z" fill="#FFCA8A"/>
<path d="M170.709 72.3525C168.629 78.6525 162.909 83.3025 156.139 84.2125C124.439 88.4425 94.0687 89.0325 64.6887 89.6125C54.7087 89.8025 44.3887 90.0025 34.2787 89.2625C25.6987 88.6325 18.7687 81.9225 17.7987 73.3225C17.4687 70.4025 17.3687 67.4625 17.4887 64.5425C19.3687 66.7325 21.7787 68.5425 24.3687 69.8025C30.2187 72.6325 36.8787 73.1725 43.3587 73.5325C79.3587 75.5125 115.599 73.2825 151.089 66.9025C157.909 65.6825 165.489 63.7725 169.069 57.8425C170.529 55.4325 171.139 52.6025 171.549 49.8125C171.589 49.5225 171.629 49.2225 171.669 48.9325C173.429 56.7525 173.139 65.0125 170.709 72.3525Z" fill="#F4A269"/>
<path d="M64.2387 86.1365C59.7527 86.1365 55.2687 86.0465 50.7987 85.8365C39.9407 85.3235 27.3107 84.0525 15.9637 78.5205C15.2497 78.1715 14.9517 77.3105 15.3007 76.5955C15.6477 75.8805 16.5097 75.5825 17.2257 75.9325C28.1027 81.2355 40.3697 82.4605 50.9347 82.9595C68.2307 83.7785 85.8277 82.7555 102.847 81.7695L138.543 79.6995C144.548 79.3525 150.756 78.9915 156.567 77.3185C161.84 75.8005 168.332 73.4455 171.77 68.6595C172.235 68.0155 173.134 67.8665 173.78 68.3315C174.426 68.7955 174.573 69.6955 174.109 70.3405C170.154 75.8445 163.082 78.4405 157.364 80.0855C151.244 81.8485 144.872 82.2175 138.71 82.5745L103.013 84.6445C90.2997 85.3805 77.2617 86.1365 64.2387 86.1365Z" fill="#BA6D38"/>
<path d="M84.0047 12.9325C82.7007 11.7365 80.5127 11.5485 79.2337 12.9325C77.3847 14.9315 74.0417 18.8615 76.7547 21.4825C77.6477 22.3445 78.9447 22.5155 80.0617 22.0445C81.0087 21.6455 81.6087 20.9505 82.2017 20.1335C82.5537 19.6495 82.8577 19.1295 83.2007 18.6395C83.2447 18.5775 83.2717 18.5375 83.2917 18.5055C83.3217 18.4745 83.3557 18.4385 83.4097 18.3775C83.6097 18.1555 83.8027 17.9255 84.0047 17.7045C85.1967 16.4035 85.3877 14.2035 84.0047 12.9325Z" fill="#F4A269"/>
<path d="M64.1287 17.6746C62.1927 16.6516 60.1577 17.2926 58.9457 19.0326C57.8637 20.5866 56.0547 22.5406 56.2737 24.5606C56.3937 25.6726 56.7087 26.5366 57.6167 27.2376C58.4887 27.9116 59.5127 28.1066 60.5887 27.8486C62.9057 27.2926 64.2097 24.6686 65.4877 22.8576C66.6337 21.2336 65.8317 18.5736 64.1287 17.6746Z" fill="#F4A269"/>
<path d="M104.438 14.9185C104.352 13.7275 104.085 12.5366 103.882 11.3606C103.556 9.47255 101.139 8.24256 99.3877 8.80956C97.3757 9.46056 96.4587 11.2865 96.8367 13.3035C97.2557 15.5335 97.5807 18.0095 99.7197 19.2935C100.701 19.8815 102.431 19.8206 103.198 18.8446C104.106 17.6876 104.545 16.4075 104.438 14.9185Z" fill="#F4A269"/>
<path d="M123.235 11.3505C122.054 9.81447 119.984 8.83449 118.15 10.0165C116.59 11.0225 115.602 13.4135 116.817 15.1015C118.682 17.6925 120.477 21.1415 123.972 21.5005C125.172 21.6235 126.607 20.4965 126.836 19.3205C127.453 16.1455 125.023 13.6775 123.235 11.3505Z" fill="#F4A269"/>
<path d="M145.579 21.3495C144.632 19.8615 142.534 19.1245 140.962 20.1385C139.474 21.0985 138.738 23.1615 139.752 24.7545C140.806 26.4115 141.889 28.2455 143.841 28.9045C144.706 29.1965 145.673 28.9215 146.367 28.3855C147.139 27.7885 147.406 27.0555 147.509 26.1105C147.692 24.4245 146.444 22.7085 145.579 21.3495Z" fill="#F4A269"/>
<path d="M45.5697 32.4056C45.3887 31.7506 44.8827 31.0405 44.2707 30.7175C43.0017 30.0465 41.0977 30.3125 40.4057 31.7305C39.8467 32.8745 39.0607 34.2275 39.1837 35.5505C39.2667 36.4495 39.6057 37.2275 40.4187 37.7025C41.1647 38.1395 42.1907 38.1765 42.9337 37.7025C44.0887 36.9675 44.7037 35.7715 45.2847 34.5825C45.6207 33.8925 45.7777 33.1676 45.5697 32.4056Z" fill="#F4A269"/>
<path d="M146.764 43.4885C146.68 42.8955 146.596 42.3015 146.513 41.7085C146.451 41.2655 145.993 40.7715 145.627 40.5575C145.215 40.3155 144.607 40.2145 144.144 40.3635C143.087 40.7055 142.595 41.6705 142.799 42.7315C142.911 43.3175 143.025 43.9035 143.137 44.4885C143.324 45.4565 144.536 46.0975 145.451 45.8015C145.906 45.6545 146.345 45.3735 146.575 44.9375C146.827 44.4595 146.839 44.0195 146.764 43.4885Z" fill="#F4A269"/>
<path d="M45.5297 47.6986C45.2897 47.2886 44.8187 46.8965 44.3467 46.7895C43.8407 46.6735 43.2717 46.6985 42.8217 46.9885C42.3937 47.2645 42.0397 47.6656 41.9117 48.1716C41.8127 48.5666 41.7177 48.9575 41.6507 49.3595C41.5617 49.8895 41.5657 50.3776 41.8467 50.8576C42.0827 51.2616 42.5447 51.6445 43.0087 51.7505C44.0847 51.9955 45.0507 51.4256 45.3987 50.3926C45.5297 50.0076 45.6307 49.6186 45.7297 49.2236C45.8567 48.7196 45.7957 48.1516 45.5297 47.6986Z" fill="#F4A269"/>
<path d="M164.799 156.723C164.809 158.853 164.179 160.953 162.919 162.793C160.919 165.713 157.739 167.463 154.209 167.603C112.409 169.193 68.7087 169.393 24.3287 168.193C20.5287 168.093 17.0887 166.063 15.1287 162.763C13.9887 160.833 13.4887 158.723 13.6387 156.633C13.7187 155.403 14.0387 154.183 14.5787 153.013C15.5987 153.363 16.6787 153.583 17.8087 153.643L36.4087 154.683C42.5187 155.033 48.8187 155.383 55.7487 153.963C58.4287 155.053 61.2887 155.603 64.1587 155.603C67.0787 155.603 70.0187 155.043 72.8087 153.913C80.5387 156.163 88.9387 155.983 96.6787 153.373C101.499 155.353 106.799 155.453 112.129 153.683C119.159 156.413 127.289 155.773 135.269 151.873C140.789 154.493 147.659 154.153 153.809 150.953C156.709 152.083 159.949 151.433 162.499 149.863C163.209 150.913 163.789 152.073 164.219 153.333C164.599 154.443 164.789 155.593 164.799 156.723Z" fill="#FFCA8A"/>
<path d="M164.799 156.723C164.809 158.853 164.179 160.953 162.919 162.793C160.919 165.713 157.739 167.463 154.209 167.603C112.409 169.193 68.7087 169.393 24.3287 168.193C20.5287 168.093 17.0887 166.063 15.1287 162.763C13.9887 160.833 13.4887 158.723 13.6387 156.633C22.9087 158.553 41.1687 160.853 74.2987 160.253C102.799 159.733 137.739 158.143 164.799 156.723Z" fill="#F4A269"/>
<path d="M73.3197 161.114C62.4527 161.114 51.6027 160.996 40.7897 160.759C29.7827 160.517 19.8887 160.098 10.2827 157.394C9.51668 157.179 9.07168 156.385 9.28768 155.619C9.50268 154.854 10.2987 154.407 11.0627 154.624C20.3437 157.235 30.0457 157.644 40.8527 157.881C82.5377 158.795 124.774 157.94 166.39 155.345C167.172 155.289 167.867 155.899 167.917 156.693C167.966 157.486 167.363 158.17 166.569 158.219C135.667 160.146 104.424 161.114 73.3197 161.114Z" fill="#BA6D38"/>
<path d="M172.479 103.483C172.399 109.373 169.759 115.483 165.419 119.533C158.789 125.713 148.549 128.283 138.039 126.413C134.249 125.743 130.909 124.593 128.069 123.003C130.069 120.793 132.059 118.603 133.989 116.483C136.469 113.763 138.869 111.163 141.109 108.733C141.839 109.043 142.589 109.383 143.359 109.743C146.759 111.313 150.599 113.083 154.839 112.303C158.279 111.663 160.819 109.583 163.269 107.573C165.019 106.133 166.669 104.773 168.489 104.113C169.049 103.913 169.619 103.763 170.219 103.673C170.939 103.553 171.689 103.503 172.479 103.483Z" fill="#F76D4D"/>
<path d="M172.479 103.483C172.399 109.373 169.759 115.483 165.419 119.533C158.789 125.713 148.549 128.283 138.039 126.413C134.249 125.743 130.909 124.593 128.069 123.003C130.069 120.793 132.059 118.603 133.989 116.483C139.459 118.483 148.549 120.833 156.299 118.253C164.519 115.513 168.519 108.083 170.219 103.673C170.939 103.553 171.689 103.503 172.479 103.483Z" fill="#E24134"/>
<path d="M135.479 107.403C131.389 111.863 126.859 116.803 122.329 121.843C118.069 126.573 114.119 131.013 110.309 135.383C98.9687 131.153 87.6887 126.453 76.7087 121.403C77.3587 120.153 77.9187 118.863 78.3687 117.553C78.7487 117.583 79.1287 117.603 79.4987 117.603C79.9487 117.603 80.3987 117.583 80.8387 117.543C81.7187 117.463 82.5587 117.303 83.3787 117.083C85.5187 116.523 87.4887 115.583 89.4087 114.663C92.0087 113.413 94.4687 112.253 96.9187 112.253C99.3087 112.253 101.719 113.383 104.269 114.573C107.279 115.983 110.359 117.433 113.989 117.363C115.219 117.343 116.459 117.143 117.649 116.773C118.979 116.373 120.239 115.803 121.429 115.123C123.129 114.173 124.729 113.023 126.289 111.903C129.379 109.673 132.309 107.563 135.479 107.403Z" fill="#FFF57D"/>
<path d="M135.479 107.403C131.389 111.863 126.859 116.803 122.329 121.843C118.069 126.573 114.119 131.013 110.309 135.383C98.9687 131.153 87.6887 126.453 76.7087 121.403C77.3587 120.153 77.9187 118.863 78.3687 117.553C78.7487 117.583 79.1287 117.603 79.4987 117.603C79.9487 117.603 80.3987 117.583 80.8387 117.543C81.7187 117.463 82.5587 117.303 83.3787 117.083L108.299 128.253L121.429 115.123C123.129 114.173 124.729 113.023 126.289 111.903C129.379 109.673 132.309 107.563 135.479 107.403Z" fill="#F9D438"/>
<path d="M44.8127 125.276C43.2917 125.276 41.7837 125.179 40.2907 124.986C28.4807 123.449 18.2707 115.41 14.8837 104.981C14.6377 104.224 15.0517 103.412 15.8077 103.167C16.5697 102.922 17.3777 103.337 17.6227 104.091C20.6717 113.485 29.9317 120.734 40.6617 122.13C50.4137 123.397 61.0257 120.098 69.7787 113.075C70.3977 112.577 71.3047 112.675 71.8017 113.297C72.2997 113.917 72.2007 114.822 71.5817 115.32C63.5467 121.767 54.0077 125.276 44.8127 125.276Z" fill="#BA1327"/>
<path d="M147.087 120.583C142.026 120.583 136.577 119.462 130.984 117.243C130.245 116.95 129.884 116.113 130.177 115.374C130.47 114.635 131.304 114.274 132.046 114.566C137.654 116.791 146.045 118.985 154.178 116.812C161.78 114.781 167.71 108.903 168.932 102.186C169.073 101.404 169.821 100.889 170.607 101.027C171.388 101.17 171.906 101.919 171.765 102.702C170.347 110.492 163.578 117.281 154.921 119.595C152.449 120.254 149.825 120.583 147.087 120.583Z" fill="#BA1327"/>
<path d="M107.738 129.776C107.58 129.776 107.422 129.751 107.269 129.698L95.9047 125.786C95.1527 125.527 94.7537 124.708 95.0117 123.956C95.2707 123.205 96.0887 122.805 96.8417 123.064L107.373 126.688C109.72 124.42 112.001 122.175 114.212 120C118.71 115.572 122.959 111.39 127.425 107.331C128.012 106.797 128.924 106.84 129.459 107.428C129.993 108.017 129.95 108.927 129.361 109.463C124.938 113.482 120.709 117.644 116.231 122.051C113.816 124.428 111.319 126.886 108.736 129.374C108.464 129.636 108.104 129.776 107.738 129.776Z" fill="#E5AE00"/>
<path d="M185.659 94.7226C185.229 97.0226 181.989 98.3726 179.019 98.5126C177.859 98.5626 176.679 98.5226 175.429 98.4826L174.969 98.4726C172.189 98.3826 169.459 98.3826 166.759 99.3826C164.139 100.343 162.069 102.033 160.069 103.673C158.029 105.353 156.089 106.943 153.919 107.343C151.259 107.843 148.449 106.543 145.479 105.163C144.129 104.543 142.729 103.903 141.289 103.393C141.279 103.383 141.259 103.383 141.249 103.383C139.229 102.653 137.419 102.323 135.639 102.353C130.799 102.443 127.009 105.173 123.339 107.813C120.909 109.563 118.599 111.223 116.179 111.953C115.409 112.193 114.659 112.313 113.889 112.333C111.429 112.373 109.009 111.223 106.409 110.013C103.479 108.633 100.439 107.223 96.9287 107.213H96.8887C93.2987 107.213 90.2087 108.693 87.2287 110.123C84.8687 111.253 82.6387 112.323 80.3787 112.523C79.3387 112.623 78.2687 112.543 77.1187 112.283C74.5987 111.723 72.0987 110.393 69.4487 108.983C65.8787 107.083 62.1887 105.123 57.9487 104.763C52.8587 104.333 48.2787 106.303 43.8487 108.203C43.1687 108.493 42.4987 108.783 41.8187 109.063C36.1187 111.423 31.8787 111.783 28.8587 110.153C27.4887 109.413 26.2587 108.203 24.9387 106.923C22.9087 104.933 20.5987 102.673 17.3287 101.943C15.1887 101.453 13.1187 101.753 11.2887 102.013C10.9287 102.063 10.5787 102.123 10.2587 102.163C9.91872 102.203 9.57872 102.243 9.23872 102.263C7.62872 102.393 5.75872 102.063 5.21872 101.033C4.52872 99.7226 6.06872 97.4626 7.74872 95.7726C10.2087 93.2926 12.8487 90.9626 15.6287 88.8126C16.5787 88.0826 17.5387 87.3726 18.5187 86.6826C22.3687 91.0026 27.8187 93.8426 33.9087 94.2826C39.5187 94.7026 45.1687 94.8326 50.7687 94.8326C55.4887 94.8326 60.1887 94.7426 64.8087 94.6526C94.3087 94.0726 124.819 93.4726 156.809 89.2026C162.389 88.4626 167.419 85.6926 171.009 81.6526C173.159 82.8126 175.279 84.0726 177.339 85.4226C178.619 86.2526 179.869 87.1226 181.099 88.0326C183.429 89.7526 186.109 92.3126 185.659 94.7226Z" fill="#90C65D"/>
<path d="M184.098 83.9855C180.857 81.5905 177.443 79.4235 173.931 77.4965C174.549 76.3625 175.082 75.1755 175.494 73.9315C179.404 62.1205 178.346 48.2035 172.662 36.7045C165.403 22.0165 151.05 10.2755 133.285 4.49253C118.768 -0.233472 101.658 -1.23647 82.4277 1.51053C57.3237 5.09853 38.5157 13.9645 26.5287 27.8645C16.0347 40.0315 10.8977 57.2355 12.7867 73.8865C13.1417 77.0235 14.1197 79.9626 15.5867 82.5816C11.4987 85.4696 7.6657 88.7035 4.1697 92.2255C0.262701 96.1585 -0.9513 100.116 0.7507 103.366C1.9627 105.691 4.4857 107.094 7.6797 107.303C7.4397 111.549 8.3977 115.915 10.4497 119.66C10.5277 119.802 10.6167 119.934 10.6967 120.075C6.7987 124.666 5.6057 131.306 7.6497 136.967C6.7267 138.819 6.3357 140.944 6.5397 143.083C6.8127 145.957 8.1837 148.535 10.2287 150.428C7.8517 155.152 8.0587 160.714 10.7977 165.332C13.6407 170.13 18.6497 173.085 24.1937 173.235C43.2607 173.748 62.2007 174.006 80.9187 174.006C105.883 174.006 130.452 173.549 154.4 172.636C159.545 172.44 164.163 169.888 167.074 165.635C169.914 161.484 170.609 156.399 168.981 151.686C168.294 149.695 167.315 147.882 166.098 146.258C167.736 143.671 168.46 140.416 168.306 136.215C170.782 134.754 172.66 132.257 173.292 129.45C173.975 126.411 173.183 123.076 171.264 120.625C175.186 115.828 177.447 109.685 177.518 103.569C178.091 103.573 178.667 103.572 179.25 103.544C184.213 103.313 189.651 100.783 190.614 95.6495C191.357 91.6555 189.165 87.7305 184.098 83.9855ZM30.3447 31.1556C41.5137 18.2046 59.2767 9.90954 83.1397 6.49854C89.9607 5.52454 96.4917 5.03754 102.713 5.03754C113.327 5.03754 123.038 6.45554 131.725 9.28354C148.209 14.6495 161.482 25.4575 168.145 38.9375C173.255 49.2765 174.214 61.7655 170.711 72.3485C168.624 78.6515 162.904 83.3065 156.139 84.2105C124.436 88.4455 94.0727 89.0375 64.6927 89.6115C54.7117 89.8055 44.3887 90.0065 34.2777 89.2635C25.7027 88.6325 18.7687 81.9276 17.7937 73.3186C16.0597 58.0386 20.7527 42.2776 30.3447 31.1556ZM162.915 162.789C160.915 165.712 157.742 167.466 154.208 167.601C112.411 169.194 68.7127 169.395 24.3307 168.198C20.5267 168.095 17.0887 166.063 15.1317 162.762C13.3097 159.691 13.1187 156.163 14.5757 153.017C15.5997 153.366 16.6827 153.583 17.8057 153.646L36.4087 154.688C42.5137 155.03 48.8187 155.383 55.7487 153.961C58.4297 155.056 61.2867 155.603 64.1617 155.603C67.0817 155.603 70.0197 155.039 72.8097 153.912C80.5347 156.168 88.9337 155.979 96.6787 153.376C101.494 155.349 106.796 155.455 112.131 153.684C119.154 156.413 127.288 155.775 135.27 151.871C140.785 154.496 147.663 154.157 153.811 150.95C156.705 152.079 159.951 151.438 162.497 149.865C163.205 150.918 163.785 152.077 164.219 153.33C165.32 156.521 164.846 159.969 162.915 162.789ZM168.376 128.343C167.978 130.109 166.563 131.696 164.855 132.291C163.766 132.671 163.075 133.741 163.176 134.889C163.573 139.455 162.968 142.402 161.212 144.44C159.753 146.131 156.945 147.152 155.094 145.977C154.292 145.467 153.272 145.453 152.457 145.939C147.12 149.11 141.027 149.461 136.557 146.857C135.805 146.418 134.877 146.399 134.106 146.809C126.772 150.705 119.352 151.371 113.212 148.68C112.611 148.417 111.933 148.398 111.319 148.628C106.603 150.392 101.945 150.308 97.8497 148.39C97.2427 148.104 96.5477 148.074 95.9177 148.304C88.6497 150.956 80.6657 151.145 73.4317 148.833C72.8377 148.643 72.1937 148.681 71.6257 148.939C66.8477 151.104 61.6717 151.139 57.0507 149.037C56.5517 148.808 55.9907 148.751 55.4567 148.871C48.8907 150.339 42.6877 149.993 36.6897 149.658L18.0877 148.616C14.6717 148.425 11.8627 145.841 11.5557 142.607C11.4147 141.121 11.7527 139.726 12.5347 138.573C13.0287 137.843 13.1057 136.909 12.7377 136.107C11.0397 132.413 11.5087 127.78 13.7567 124.385C18.7457 130.152 25.5917 133.459 30.9627 135.292C36.3247 137.124 41.7257 138.036 46.8927 138.036C53.3477 138.036 59.4357 136.615 64.6157 133.798C68.2327 131.832 71.4327 129.052 73.9807 125.698C85.7987 131.154 97.9667 136.204 110.185 140.713C110.471 140.819 110.765 140.87 111.057 140.87C111.773 140.87 112.471 140.565 112.958 140.004C116.674 135.736 120.515 131.401 124.627 126.827C128.174 128.996 132.373 130.53 137.157 131.379C139.697 131.83 142.225 132.052 144.711 132.052C153.441 132.051 161.613 129.323 167.664 124.266C168.394 125.473 168.681 126.988 168.376 128.343ZM12.7697 106.898C14.0187 106.729 15.1957 106.622 16.2217 106.854C18.0977 107.277 19.6387 108.782 21.4217 110.525C22.9217 111.991 24.4737 113.507 26.4617 114.581C30.9057 116.979 36.5577 116.7 43.7477 113.72C44.4427 113.433 45.1387 113.133 45.8397 112.833C49.8777 111.099 53.6877 109.471 57.5287 109.786C60.7387 110.057 63.8167 111.696 67.0767 113.43C69.1187 114.517 71.2137 115.626 73.4167 116.429C72.8177 118.054 72.0217 119.639 71.0277 121.161C68.7677 124.625 65.7197 127.464 62.2097 129.371C54.1177 133.772 43.3217 134.192 32.5917 130.524C26.7377 128.526 18.9107 124.598 14.8677 117.237C13.1807 114.157 12.4397 110.404 12.7697 106.898ZM76.7087 121.408C77.3627 120.153 77.9207 118.868 78.3677 117.558C78.7477 117.586 79.1247 117.607 79.4987 117.607C79.9477 117.607 80.3937 117.585 80.8397 117.544C84.0007 117.254 86.7497 115.937 89.4087 114.662C92.0037 113.417 94.4727 112.249 96.9157 112.249C99.3127 112.255 101.722 113.382 104.273 114.576C107.274 115.98 110.358 117.436 113.99 117.367C115.221 117.341 116.458 117.139 117.649 116.772C120.861 115.807 123.619 113.821 126.286 111.9C129.382 109.669 132.31 107.566 135.479 107.405C131.386 111.859 126.861 116.807 122.332 121.842C118.067 126.57 114.12 131.013 110.304 135.383C98.9657 131.154 87.6887 126.458 76.7087 121.408ZM165.415 119.534C158.784 125.711 148.551 128.286 138.039 126.418C134.245 125.745 130.907 124.596 128.066 123.006C132.63 117.956 137.123 113.057 141.104 108.732C141.842 109.044 142.589 109.385 143.361 109.743C146.757 111.311 150.602 113.086 154.836 112.301C158.283 111.662 160.817 109.581 163.268 107.57C165.018 106.134 166.671 104.778 168.491 104.112C169.714 103.663 171.041 103.514 172.476 103.485C172.398 109.373 169.761 115.479 165.415 119.534ZM185.66 94.7245C185.228 97.0265 181.99 98.3705 179.016 98.5105C177.861 98.5645 176.681 98.5265 175.431 98.4875L174.972 98.4735C172.187 98.3845 169.46 98.3855 166.757 99.3805C164.136 100.339 162.069 102.036 160.071 103.675C158.024 105.357 156.09 106.945 153.917 107.346C151.258 107.845 148.45 106.542 145.474 105.168C144.124 104.544 142.727 103.9 141.287 103.391C141.274 103.387 141.263 103.383 141.251 103.379C139.23 102.658 137.416 102.322 135.637 102.353C130.797 102.441 127.006 105.171 123.341 107.811C120.904 109.567 118.603 111.225 116.182 111.951C115.409 112.19 114.657 112.314 113.892 112.329C111.424 112.377 109.004 111.226 106.408 110.011C103.474 108.638 100.439 107.219 96.9277 107.21H96.8927C93.2937 107.21 90.2117 108.689 87.2297 110.119C84.8687 111.25 82.6387 112.319 80.3747 112.527C79.3357 112.624 78.2717 112.547 77.1197 112.288C74.5977 111.726 72.0947 110.393 69.4437 108.982C65.8797 107.085 62.1927 105.123 57.9527 104.765C52.8557 104.334 48.2797 106.301 43.8507 108.203C43.1717 108.495 42.4937 108.786 41.8187 109.065C36.1187 111.426 31.8797 111.781 28.8567 110.149C27.4907 109.41 26.2537 108.201 24.9427 106.92C22.9067 104.931 20.5977 102.676 17.3297 101.939C15.1897 101.456 13.1137 101.755 11.2837 102.017C10.9317 102.068 10.5817 102.119 10.2567 102.161C9.9217 102.2 9.5797 102.241 9.2417 102.266C7.6267 102.395 5.7537 102.064 5.2167 101.032C4.5307 99.7235 6.0727 97.4585 7.7447 95.7765C11.0417 92.4545 14.6577 89.4055 18.5147 86.6825C22.3707 90.9995 27.8137 93.8405 33.9087 94.2875C39.5227 94.7015 45.1667 94.8295 50.7697 94.8295C55.4907 94.8295 60.1837 94.7385 64.8087 94.6485C94.3117 94.0735 124.82 93.4775 156.806 89.2035C162.393 88.4585 167.419 85.6925 171.012 81.6495C174.5 83.5315 177.891 85.6645 181.103 88.0375C183.43 89.7575 186.109 92.3145 185.66 94.7245Z" fill="#420606"/>
<path d="M177.249 87.7326C176.809 90.4126 174.949 92.9526 172.329 93.6626C169.219 94.5126 165.829 92.7526 162.739 93.6726C159.539 94.6226 157.619 98.1626 154.399 99.0426C151.429 99.8526 148.439 98.1626 145.519 97.2126C141.169 95.8026 136.299 96.0326 132.109 97.8526C126.649 100.223 121.789 105.263 115.899 104.493C111.429 103.923 108.009 100.073 103.619 99.0526C95.2587 97.1126 87.5287 105.883 78.9887 104.993C74.7187 104.553 71.1287 101.773 67.2287 99.9726C60.6887 96.9526 52.8987 96.7526 46.2087 99.4226C43.2787 100.593 40.5587 102.283 37.5587 103.263C34.5687 104.243 31.0687 104.423 28.4387 102.673C26.0787 101.103 24.7587 98.2226 22.2587 96.9026C21.1087 96.2926 19.7987 96.0626 18.6487 95.4626C16.2987 94.2526 15.2487 91.3926 15.6287 88.8126C16.5787 88.0826 17.5387 87.3726 18.5187 86.6826C22.3687 91.0026 27.8187 93.8426 33.9087 94.2826C39.5187 94.7026 45.1687 94.8326 50.7687 94.8326C55.4887 94.8326 60.1887 94.7426 64.8087 94.6526C94.3087 94.0726 124.819 93.4726 156.809 89.2026C162.389 88.4626 167.419 85.6926 171.009 81.6526C173.159 82.8126 175.279 84.0726 177.339 85.4226C177.399 86.1926 177.369 86.9626 177.249 87.7326Z" fill="#69A546"/>
<path d="M113.746 55.4025C113.746 50.3015 118.543 46.1685 124.46 46.1685C130.377 46.1685 135.173 50.3015 135.173 55.4025C135.173 60.5025 130.377 64.6365 124.46 64.6365C118.543 64.6365 113.746 60.5025 113.746 55.4025Z" fill="#F98291"/>
<path d="M55.5817 55.4025C55.5817 50.3015 60.3787 46.1685 66.2957 46.1685C72.2127 46.1685 77.0087 50.3015 77.0087 55.4025C77.0087 60.5025 72.2127 64.6365 66.2957 64.6365C60.3787 64.6365 55.5817 60.5025 55.5817 55.4025Z" fill="#F98291"/>
<path d="M77.3657 44.3436C76.5207 44.3436 75.7807 43.7236 75.6547 42.8636C75.4397 41.4016 74.0117 40.1216 72.5377 40.0686C71.0507 40.0186 69.5457 41.1886 69.2257 42.6296C69.0187 43.5646 68.0947 44.1526 67.1607 43.9466C66.2267 43.7396 65.6367 42.8156 65.8447 41.8816C66.5237 38.8106 69.5047 36.4826 72.6627 36.6076C75.8047 36.7216 78.6257 39.2476 79.0817 42.3596C79.2197 43.3066 78.5657 44.1856 77.6197 44.3246C77.5347 44.3366 77.4497 44.3436 77.3657 44.3436Z" fill="#420606"/>
<path d="M122.618 44.3436C121.772 44.3436 121.033 43.7236 120.907 42.8626C120.693 41.4016 119.265 40.1216 117.79 40.0686C116.3 40.0186 114.798 41.1886 114.478 42.6296C114.271 43.5646 113.347 44.1526 112.413 43.9466C111.479 43.7396 110.889 42.8156 111.097 41.8816C111.777 38.8106 114.761 36.4826 117.915 36.6076C121.058 36.7216 123.878 39.2476 124.334 42.3606C124.472 43.3066 123.818 44.1866 122.872 44.3246C122.787 44.3366 122.702 44.3436 122.618 44.3436Z" fill="#420606"/>
<path d="M107.319 45.4605C107.319 47.9885 106.618 50.3535 105.414 52.3275C103.293 55.8255 99.5857 58.1385 95.3777 58.1385C91.1687 58.1385 87.4707 55.8255 85.3487 52.3275C84.1367 50.3535 83.4357 47.9885 83.4357 45.4605C83.4357 44.6725 83.5127 43.9105 83.6427 43.1655H107.111C107.241 43.9105 107.319 44.6725 107.319 45.4605Z" fill="#612D2D"/>
<path d="M105.414 52.3276C103.293 55.8256 99.5857 58.1385 95.3777 58.1385C91.1687 58.1385 87.4717 55.8256 85.3497 52.3276C88.0517 49.8856 91.5587 48.4136 95.3777 48.4136C99.2137 48.4136 102.712 49.8856 105.414 52.3276Z" fill="#F98291"/>
</svg>
