<svg width="64" height="64" viewBox="0 0 64 64" fill="none" xmlns="http://www.w3.org/2000/svg">
<circle cx="32" cy="32" r="32" fill="#FCDB29"/>
<path d="M20.84 38L17.4 26.8H17.32C17.3333 27.0667 17.3533 27.4667 17.38 28C17.4067 28.5333 17.4333 29.1067 17.46 29.72C17.4867 30.32 17.5 30.8667 17.5 31.36V38H14.8L14.8 23.72H18.92L22.3 34.64H22.36L25.94 23.72H30.06V38H27.24V31.24C27.24 30.7867 27.2467 30.2667 27.26 29.68C27.2867 29.0933 27.3067 28.54 27.32 28.02C27.3467 27.4867 27.3667 27.0867 27.38 26.82H27.3L23.62 38H20.84ZM37.9072 26.86C39.3739 26.86 40.4939 27.18 41.2672 27.82C42.0539 28.4467 42.4472 29.4133 42.4472 30.72V38H40.3672L39.7872 36.52H39.7072C39.4005 36.9067 39.0805 37.2267 38.7472 37.48C38.4272 37.7333 38.0539 37.9133 37.6272 38.02C37.2139 38.14 36.7005 38.2 36.0872 38.2C35.4472 38.2 34.8672 38.08 34.3472 37.84C33.8405 37.5867 33.4405 37.2067 33.1472 36.7C32.8539 36.18 32.7072 35.5267 32.7072 34.74C32.7072 33.58 33.1139 32.7267 33.9272 32.18C34.7405 31.62 35.9605 31.3133 37.5872 31.26L39.4872 31.2V30.72C39.4872 30.1467 39.3339 29.7267 39.0272 29.46C38.7339 29.1933 38.3205 29.06 37.7872 29.06C37.2539 29.06 36.7339 29.14 36.2272 29.3C35.7205 29.4467 35.2139 29.6333 34.7072 29.86L33.7272 27.84C34.3139 27.5333 34.9605 27.2933 35.6672 27.12C36.3872 26.9467 37.1339 26.86 37.9072 26.86ZM38.3272 32.98C37.3672 33.0067 36.7005 33.18 36.3272 33.5C35.9539 33.82 35.7672 34.24 35.7672 34.76C35.7672 35.2133 35.9005 35.54 36.1672 35.74C36.4339 35.9267 36.7805 36.02 37.2072 36.02C37.8472 36.02 38.3872 35.8333 38.8272 35.46C39.2672 35.0733 39.4872 34.5333 39.4872 33.84V32.94L38.3272 32.98ZM48.4775 27.08V38H45.4975V27.08H48.4775ZM46.9975 22.8C47.4375 22.8 47.8175 22.9067 48.1375 23.12C48.4575 23.32 48.6175 23.7 48.6175 24.26C48.6175 24.8067 48.4575 25.1867 48.1375 25.4C47.8175 25.6133 47.4375 25.72 46.9975 25.72C46.5442 25.72 46.1575 25.6133 45.8375 25.4C45.5308 25.1867 45.3775 24.8067 45.3775 24.26C45.3775 23.7 45.5308 23.32 45.8375 23.12C46.1575 22.9067 46.5442 22.8 46.9975 22.8Z" fill="#34332F"/>
</svg>
